<?xml version="1.0" encoding="UTF-8" standalone="no"?>
<!-- Created with Inkscape (http://www.inkscape.org/) -->

<svg
   width="250mm"
   height="300mm"
   viewBox="0 0 250 300"
   version="1.1"
   id="svg5"
   inkscape:version="1.1.2 (b8e25be833, 2022-02-05)"
   sodipodi:docname="Dominik Banek.svg"
   xmlns:inkscape="http://www.inkscape.org/namespaces/inkscape"
   xmlns:sodipodi="http://sodipodi.sourceforge.net/DTD/sodipodi-0.dtd"
   xmlns="http://www.w3.org/2000/svg"
   xmlns:svg="http://www.w3.org/2000/svg">
  <sodipodi:namedview
     id="namedview7"
     pagecolor="#ffffff"
     bordercolor="#666666"
     borderopacity="1.0"
     inkscape:pageshadow="2"
     inkscape:pageopacity="0.0"
     inkscape:pagecheckerboard="false"
     inkscape:document-units="mm"
     showgrid="true"
     width="250mm"
     inkscape:zoom="0.74029882"
     inkscape:cx="287.04625"
     inkscape:cy="953.66895"
     inkscape:window-width="1920"
     inkscape:window-height="1017"
     inkscape:window-x="-8"
     inkscape:window-y="-8"
     inkscape:window-maximized="1"
     inkscape:current-layer="layer1">
    <inkscape:grid
       type="xygrid"
       id="grid9"
       empspacing="10" />
  </sodipodi:namedview>
  <defs
     id="defs2">
    <clipPath
       clipPathUnits="userSpaceOnUse"
       id="clipPath6789">
      <g
         aria-label="DB"
         transform="matrix(0.90379471,0.00141062,-0.00131614,1.1064439,0,0)"
         id="g6793"
         style="font-size:102.995px;line-height:1.25;font-family:ImePrezime;-inkscape-font-specification:ImePrezime;stroke-width:2.57487">
        <path
           id="path6791"
           d="m 192.06788,85.415093 q 0,0 2.67787,0 0.20599,0 1.95691,1.02995 1.85391,1.02995 2.16289,1.44193 0.103,0.102995 0.72097,1.02995 0.72096,0.82396 1.23594,1.544925 0.51497,0.720965 0.51497,1.132945 0,0.102995 0,0.926955 0.103,0.82396 0.103,1.44193 0,0.61797 -0.20599,1.44193 -0.20599,0.720965 -0.72097,1.132945 -3.08985,2.67787 -5.35574,3.08985 -3.08985,0.823957 -3.08985,0.823957 z m -3.50183,-28.632611 5.35574,0.61797 q 1.02995,0.82396 1.02995,2.26589 0,0.41198 0.20599,1.23594 0.30899,0.82396 0.20599,1.544925 0,0.720965 -0.61797,1.544925 -0.51497,0.720965 -1.23594,1.544925 -0.72096,0.720965 -1.13294,1.23594 -0.30899,0.514975 -0.51498,0.926955 -0.20599,0.41198 -1.13294,0.82396 -0.92696,0.41198 -1.75092,0.61797 l -0.82396,0.20599 q 0.20599,-7.62163 0.41198,-12.56539 z m -7.62163,-9.88752 1.23594,61.385018 q 19.15707,0.20599 19.15707,0 0,-0.20599 7.82762,-7.00366 l 2.0599,-10.299497 -3.08985,-7.41564 -7.62163,-7.41564 q -0.61797,-0.61797 0.20599,-2.67787 1.23594,-3.08985 1.23594,-12.977371 0,-1.544925 -0.61797,-4.634775 -0.51497,-3.08985 -1.02995,-3.604825 -0.51497,-0.514975 -3.19284,-2.26589 l -2.78087,-1.64792 q -0.10299,-0.102995 -13.38935,-1.44193 z M 91.235775,91.903778 q 9.681525,-2.88386 14.007325,-6.694675 3.29584,-5.252745 3.70782,-13.59534 -0.51498,-6.488686 -4.32579,-13.904326 -5.66473,-3.604825 -12.771385,-4.94376 -0.41198,23.894841 -0.61797,39.138101 z M 76.404494,108.27998 V 36.801452 l 22.246921,0.41198 q 13.183365,6.076705 20.804995,15.65524 5.76772,9.68153 8.44559,23.276871 -1.13295,10.608485 -10.50549,19.36306 -0.51498,1.132945 -5.04676,4.531777 -4.42878,3.39884 -8.65158,6.07671 -4.1198,2.67787 -3.810815,2.16289 0,-0.10299 -3.604825,-0.10299 -3.604825,0 -10.196505,0.10299 -6.488686,0 -9.681531,0 z" />
      </g>
    </clipPath>
    <clipPath
       clipPathUnits="userSpaceOnUse"
       id="clipPath6795">
      <g
         aria-label="DB"
         transform="matrix(0.90379471,0.00141062,-0.00131614,1.1064439,0,0)"
         id="g6799"
         style="font-size:102.995px;line-height:1.25;font-family:ImePrezime;-inkscape-font-specification:ImePrezime;stroke-width:2.57487">
        <path
           id="path6797"
           d="m 192.06788,85.415093 q 0,0 2.67787,0 0.20599,0 1.95691,1.02995 1.85391,1.02995 2.16289,1.44193 0.103,0.102995 0.72097,1.02995 0.72096,0.82396 1.23594,1.544925 0.51497,0.720965 0.51497,1.132945 0,0.102995 0,0.926955 0.103,0.82396 0.103,1.44193 0,0.61797 -0.20599,1.44193 -0.20599,0.720965 -0.72097,1.132945 -3.08985,2.67787 -5.35574,3.08985 -3.08985,0.823957 -3.08985,0.823957 z m -3.50183,-28.632611 5.35574,0.61797 q 1.02995,0.82396 1.02995,2.26589 0,0.41198 0.20599,1.23594 0.30899,0.82396 0.20599,1.544925 0,0.720965 -0.61797,1.544925 -0.51497,0.720965 -1.23594,1.544925 -0.72096,0.720965 -1.13294,1.23594 -0.30899,0.514975 -0.51498,0.926955 -0.20599,0.41198 -1.13294,0.82396 -0.92696,0.41198 -1.75092,0.61797 l -0.82396,0.20599 q 0.20599,-7.62163 0.41198,-12.56539 z m -7.62163,-9.88752 1.23594,61.385018 q 19.15707,0.20599 19.15707,0 0,-0.20599 7.82762,-7.00366 l 2.0599,-10.299497 -3.08985,-7.41564 -7.62163,-7.41564 q -0.61797,-0.61797 0.20599,-2.67787 1.23594,-3.08985 1.23594,-12.977371 0,-1.544925 -0.61797,-4.634775 -0.51497,-3.08985 -1.02995,-3.604825 -0.51497,-0.514975 -3.19284,-2.26589 l -2.78087,-1.64792 q -0.10299,-0.102995 -13.38935,-1.44193 z M 91.235775,91.903778 q 9.681525,-2.88386 14.007325,-6.694675 3.29584,-5.252745 3.70782,-13.59534 -0.51498,-6.488686 -4.32579,-13.904326 -5.66473,-3.604825 -12.771385,-4.94376 -0.41198,23.894841 -0.61797,39.138101 z M 76.404494,108.27998 V 36.801452 l 22.246921,0.41198 q 13.183365,6.076705 20.804995,15.65524 5.76772,9.68153 8.44559,23.276871 -1.13295,10.608485 -10.50549,19.36306 -0.51498,1.132945 -5.04676,4.531777 -4.42878,3.39884 -8.65158,6.07671 -4.1198,2.67787 -3.810815,2.16289 0,-0.10299 -3.604825,-0.10299 -3.604825,0 -10.196505,0.10299 -6.488686,0 -9.681531,0 z" />
      </g>
    </clipPath>
    <clipPath
       clipPathUnits="userSpaceOnUse"
       id="clipPath6801">
      <g
         aria-label="DB"
         transform="matrix(0.90379471,0.00141062,-0.00131614,1.1064439,0,0)"
         id="g6805"
         style="font-size:102.995px;line-height:1.25;font-family:ImePrezime;-inkscape-font-specification:ImePrezime;stroke-width:2.57487">
        <path
           id="path6803"
           d="m 192.06788,85.415093 q 0,0 2.67787,0 0.20599,0 1.95691,1.02995 1.85391,1.02995 2.16289,1.44193 0.103,0.102995 0.72097,1.02995 0.72096,0.82396 1.23594,1.544925 0.51497,0.720965 0.51497,1.132945 0,0.102995 0,0.926955 0.103,0.82396 0.103,1.44193 0,0.61797 -0.20599,1.44193 -0.20599,0.720965 -0.72097,1.132945 -3.08985,2.67787 -5.35574,3.08985 -3.08985,0.823957 -3.08985,0.823957 z m -3.50183,-28.632611 5.35574,0.61797 q 1.02995,0.82396 1.02995,2.26589 0,0.41198 0.20599,1.23594 0.30899,0.82396 0.20599,1.544925 0,0.720965 -0.61797,1.544925 -0.51497,0.720965 -1.23594,1.544925 -0.72096,0.720965 -1.13294,1.23594 -0.30899,0.514975 -0.51498,0.926955 -0.20599,0.41198 -1.13294,0.82396 -0.92696,0.41198 -1.75092,0.61797 l -0.82396,0.20599 q 0.20599,-7.62163 0.41198,-12.56539 z m -7.62163,-9.88752 1.23594,61.385018 q 19.15707,0.20599 19.15707,0 0,-0.20599 7.82762,-7.00366 l 2.0599,-10.299497 -3.08985,-7.41564 -7.62163,-7.41564 q -0.61797,-0.61797 0.20599,-2.67787 1.23594,-3.08985 1.23594,-12.977371 0,-1.544925 -0.61797,-4.634775 -0.51497,-3.08985 -1.02995,-3.604825 -0.51497,-0.514975 -3.19284,-2.26589 l -2.78087,-1.64792 q -0.10299,-0.102995 -13.38935,-1.44193 z M 91.235775,91.903778 q 9.681525,-2.88386 14.007325,-6.694675 3.29584,-5.252745 3.70782,-13.59534 -0.51498,-6.488686 -4.32579,-13.904326 -5.66473,-3.604825 -12.771385,-4.94376 -0.41198,23.894841 -0.61797,39.138101 z M 76.404494,108.27998 V 36.801452 l 22.246921,0.41198 q 13.183365,6.076705 20.804995,15.65524 5.76772,9.68153 8.44559,23.276871 -1.13295,10.608485 -10.50549,19.36306 -0.51498,1.132945 -5.04676,4.531777 -4.42878,3.39884 -8.65158,6.07671 -4.1198,2.67787 -3.810815,2.16289 0,-0.10299 -3.604825,-0.10299 -3.604825,0 -10.196505,0.10299 -6.488686,0 -9.681531,0 z" />
      </g>
    </clipPath>
  </defs>
  <g
     inkscape:label="path"
     inkscape:groupmode="layer"
     id="layer1">
    <path
       style="fill:none;stroke:#000000;stroke-width:2.73835;stroke-linecap:butt;stroke-linejoin:miter;stroke-miterlimit:4;stroke-dasharray:none;stroke-opacity:0.5"
       d="m 74.083332,123.87106 c 0,0 -89.958328,26.56974 -26.458332,-61.996058 58.20834,-70.8526261 74.08334,-26.569735 74.08334,-26.569735"
       id="path1074"
       inkscape:label="krivulja1"
       clip-path="url(#clipPath6801)"
       transform="matrix(0.96642128,0,0,1,0.83738135,0)" />
    <path
       style="fill:none;stroke:#000000;stroke-width:0.705556;stroke-linecap:butt;stroke-linejoin:miter;stroke-miterlimit:4;stroke-dasharray:none;stroke-opacity:0.8"
       d="m 169.33333,130.66667 c 0,0 21.16667,5.29166 37.04167,-26.45833 C 222.25,72.458336 169.33333,19.541669 169.33333,19.541669"
       id="path1189"
       inkscape:label="krivulja2"
       clip-path="url(#clipPath6795)"
       transform="matrix(0.96642128,0,0,1,0.83738135,0)" />
    <g
       id="g1417"
       inkscape:label="blend"
       clip-path="url(#clipPath6789)"
       transform="matrix(0.96642128,0,0,1,0.83738135,0)">
      <path
         style="opacity:1;fill:none;fill-opacity:1;stroke:#000000;stroke-width:2.68877px;stroke-linecap:butt;stroke-linejoin:miter;stroke-miterlimit:4;stroke-dasharray:none;stroke-opacity:0.507317"
         d="m 76.4065,124.037 c 0,0 -57.8109,17.356 -45.4142,-23.865 2.83,-9.384 9.143,-21.7705 20.5017,-37.9931 56.56,-69.78942 71.376,-27.2581 71.376,-27.2581"
         id="path1337" />
      <path
         style="opacity:1;fill:none;fill-opacity:1;stroke:#000000;stroke-width:2.63919px;stroke-linecap:butt;stroke-linejoin:miter;stroke-miterlimit:4;stroke-dasharray:none;stroke-opacity:0.514634"
         d="m 78.7297,124.203 c 0,0 -55.8365,17.054 -43.3528,-23.931 2.8698,-9.3697 9.0021,-21.7088 19.9861,-37.7892 54.911,-68.72621 68.669,-27.9465 68.669,-27.9465"
         id="path1339" />
      <path
         style="opacity:1;fill:none;fill-opacity:1;stroke:#000000;stroke-width:2.58961px;stroke-linecap:butt;stroke-linejoin:miter;stroke-miterlimit:4;stroke-dasharray:none;stroke-opacity:0.521951"
         d="m 81.0528,124.368 c 0,0 -53.862,16.753 -41.2914,-23.995 2.9097,-9.3564 8.8612,-21.6482 19.4706,-37.5863 53.262,-67.663 65.961,-28.6349 65.961,-28.6349"
         id="path1341" />
      <path
         style="opacity:1;fill:none;fill-opacity:1;stroke:#000000;stroke-width:2.54003px;stroke-linecap:butt;stroke-linejoin:miter;stroke-miterlimit:4;stroke-dasharray:none;stroke-opacity:0.529268"
         d="m 83.376,124.534 c 0,0 -51.8876,16.452 -39.23,-24.06 C 47.0955,91.1309 52.8662,78.8865 63.1009,63.0906 114.715,-3.50919 126.355,33.7674 126.355,33.7674"
         id="path1343" />
      <path
         style="opacity:1;fill:none;fill-opacity:1;stroke:#000000;stroke-width:2.49045px;stroke-linecap:butt;stroke-linejoin:miter;stroke-miterlimit:4;stroke-dasharray:none;stroke-opacity:0.536585"
         d="m 85.6992,124.7 c 0,0 -49.9132,16.15 -37.1686,-24.125 C 51.5199,91.2452 57.1099,79.0481 66.9699,63.3945 116.935,-2.14208 127.516,33.3829 127.516,33.3829"
         id="path1345" />
      <path
         style="opacity:1;fill:none;fill-opacity:1;stroke:#000000;stroke-width:2.44087px;stroke-linecap:butt;stroke-linejoin:miter;stroke-miterlimit:4;stroke-dasharray:none;stroke-opacity:0.543902"
         d="m 88.0224,124.866 c 0,0 -47.9388,15.848 -35.1073,-24.19 3.0293,-9.3165 8.4384,-21.4662 17.9238,-36.9776 48.3161,-64.47337 57.8391,-30.7 57.8391,-30.7"
         id="path1347" />
      <path
         style="opacity:1;fill:none;fill-opacity:1;stroke:#000000;stroke-width:2.39129px;stroke-linecap:butt;stroke-linejoin:miter;stroke-miterlimit:4;stroke-dasharray:none;stroke-opacity:0.55122"
         d="m 90.3455,125.031 c 0,0 -45.9643,15.547 -33.0458,-24.254 C 60.3688,91.4738 65.5971,79.3715 74.7079,64.0023 121.375,0.592139 129.839,32.6139 129.839,32.6139"
         id="path1349" />
      <path
         style="opacity:1;fill:none;fill-opacity:1;stroke:#000000;stroke-width:2.34171px;stroke-linecap:butt;stroke-linejoin:miter;stroke-miterlimit:4;stroke-dasharray:none;stroke-opacity:0.558537"
         d="m 92.6687,125.197 c 0,0 -43.9899,15.245 -30.9844,-24.319 C 64.7932,91.5881 69.8407,79.5331 78.5769,64.3062 123.596,1.95925 131.001,32.2294 131.001,32.2294"
         id="path1351" />
      <path
         style="opacity:1;fill:none;fill-opacity:1;stroke:#000000;stroke-width:2.29213px;stroke-linecap:butt;stroke-linejoin:miter;stroke-miterlimit:4;stroke-dasharray:none;stroke-opacity:0.565854"
         d="m 94.9919,125.363 c 0,0 -42.0154,14.943 -28.9231,-24.384 C 69.2176,91.7024 74.0844,79.6948 82.4459,64.6102 125.816,3.32636 132.163,31.845 132.163,31.845"
         id="path1353" />
      <path
         style="opacity:1;fill:none;fill-opacity:1;stroke:#000000;stroke-width:2.24255px;stroke-linecap:butt;stroke-linejoin:miter;stroke-miterlimit:4;stroke-dasharray:none;stroke-opacity:0.573171"
         d="m 97.315,125.529 c 0,0 -40.0409,14.641 -26.8616,-24.449 C 73.6421,91.8167 78.328,79.8564 86.3149,64.9141 128.036,4.69347 133.324,31.4605 133.324,31.4605"
         id="path1355" />
      <path
         style="opacity:1;fill:none;fill-opacity:1;stroke:#000000;stroke-width:2.19297px;stroke-linecap:butt;stroke-linejoin:miter;stroke-miterlimit:4;stroke-dasharray:none;stroke-opacity:0.580488"
         d="m 99.6382,125.694 c 0,0 -38.0665,14.34 -24.8002,-24.513 3.2285,-9.25 7.7336,-21.1629 15.3458,-35.963 C 130.257,6.06058 134.486,31.076 134.486,31.076"
         id="path1357" />
      <path
         style="opacity:1;fill:none;fill-opacity:1;stroke:#000000;stroke-width:2.14339px;stroke-linecap:butt;stroke-linejoin:miter;stroke-miterlimit:4;stroke-dasharray:none;stroke-opacity:0.587805"
         d="m 101.961,125.86 c 0,0 -36.0917,14.039 -22.7385,-24.578 C 82.4909,92.0453 86.8153,80.1797 94.0528,65.5219 132.477,7.42768 135.647,30.6915 135.647,30.6915"
         id="path1359" />
      <path
         style="opacity:1;fill:none;fill-opacity:1;stroke:#000000;stroke-width:2.09381px;stroke-linecap:butt;stroke-linejoin:miter;stroke-miterlimit:4;stroke-dasharray:none;stroke-opacity:0.595122"
         d="m 104.285,126.026 c 0,0 -34.1181,13.737 -20.6779,-24.643 C 86.9153,92.1596 91.0589,80.3414 97.9218,65.8258 134.697,8.79479 136.809,30.3071 136.809,30.3071"
         id="path1361" />
      <path
         style="opacity:1;fill:none;fill-opacity:1;stroke:#000000;stroke-width:2.04423px;stroke-linecap:butt;stroke-linejoin:miter;stroke-miterlimit:4;stroke-dasharray:none;stroke-opacity:0.602439"
         d="m 106.608,126.192 c 0,0 -32.1435,13.435 -18.6163,-24.709 3.348,-9.2091 7.3108,-20.9799 13.7993,-35.3533 35.126,-55.9678 36.18,-36.2071 36.18,-36.2071"
         id="path1363" />
      <path
         style="opacity:1;fill:none;fill-opacity:1;stroke:#000000;stroke-width:1.99464px;stroke-linecap:butt;stroke-linejoin:miter;stroke-miterlimit:4;stroke-dasharray:none;stroke-opacity:0.609756"
         d="m 108.931,126.357 c 0,0 -30.1689,13.134 -16.5548,-24.773 3.388,-9.1958 7.1699,-20.9193 13.2838,-35.1504 33.478,-54.9046 33.472,-36.8955 33.472,-36.8955"
         id="path1365" />
      <path
         style="opacity:1;fill:none;fill-opacity:1;stroke:#000000;stroke-width:1.94506px;stroke-linecap:butt;stroke-linejoin:miter;stroke-miterlimit:4;stroke-dasharray:none;stroke-opacity:0.617073"
         d="m 111.254,126.523 c 0,0 -28.1943,12.832 -14.4932,-24.838 3.4282,-9.1825 7.0292,-20.8586 12.7682,-34.9475 31.829,-53.8414 30.765,-37.5839 30.765,-37.5839"
         id="path1367" />
      <path
         style="opacity:1;fill:none;fill-opacity:1;stroke:#000000;stroke-width:1.89548px;stroke-linecap:butt;stroke-linejoin:miter;stroke-miterlimit:4;stroke-dasharray:none;stroke-opacity:0.62439"
         d="m 113.577,126.689 c 0,0 -26.2197,12.53 -12.432,-24.903 3.468,-9.1692 6.888,-20.798 12.253,-34.7446 30.18,-52.7782 28.057,-38.2723 28.057,-38.2723"
         id="path1369" />
      <path
         style="opacity:1;fill:none;fill-opacity:1;stroke:#000000;stroke-width:1.8459px;stroke-linecap:butt;stroke-linejoin:miter;stroke-miterlimit:4;stroke-dasharray:none;stroke-opacity:0.631707"
         d="m 115.9,126.854 c 0,0 -24.245,12.229 -10.37,-24.967 3.507,-9.1559 6.747,-20.7373 11.737,-34.5417 28.532,-51.715 25.35,-38.9606 25.35,-38.9606"
         id="path1371" />
      <path
         style="opacity:1;fill:none;fill-opacity:1;stroke:#000000;stroke-width:1.79632px;stroke-linecap:butt;stroke-linejoin:miter;stroke-miterlimit:4;stroke-dasharray:none;stroke-opacity:0.639024"
         d="m 118.224,127.02 c 0,0 -22.2714,11.927 -8.309,-25.032 3.547,-9.1426 6.606,-20.6766 11.221,-34.3388 26.883,-50.6518 22.642,-39.649 22.642,-39.649"
         id="path1373" />
      <path
         style="opacity:1;fill:none;fill-opacity:1;stroke:#000000;stroke-width:1.74674px;stroke-linecap:butt;stroke-linejoin:miter;stroke-miterlimit:4;stroke-dasharray:none;stroke-opacity:0.646341"
         d="m 120.547,127.186 c 0,0 -20.297,11.626 -6.248,-25.097 3.587,-9.1293 6.465,-20.616 10.706,-34.1359 25.234,-49.5885 19.935,-40.3374 19.935,-40.3374"
         id="path1375" />
      <path
         style="opacity:1;fill:none;fill-opacity:1;stroke:#000000;stroke-width:1.69716px;stroke-linecap:butt;stroke-linejoin:miter;stroke-miterlimit:4;stroke-dasharray:none;stroke-opacity:0.653659"
         d="m 122.87,127.352 c 0,0 -18.322,11.324 -4.186,-25.162 3.627,-9.116 6.324,-20.5553 10.19,-33.933 23.586,-48.5253 17.228,-41.0258 17.228,-41.0258"
         id="path1377" />
      <path
         style="opacity:1;fill:none;fill-opacity:1;stroke:#000000;stroke-width:1.64758px;stroke-linecap:butt;stroke-linejoin:miter;stroke-miterlimit:4;stroke-dasharray:none;stroke-opacity:0.660976"
         d="m 125.193,127.517 c 0,0 -16.348,11.023 -2.125,-25.226 3.667,-9.1027 6.184,-20.4947 9.675,-33.7301 21.937,-47.4621 14.52,-41.7141 14.52,-41.7141"
         id="path1379" />
      <path
         style="opacity:1;fill:none;fill-opacity:1;stroke:#000000;stroke-width:1.598px;stroke-linecap:butt;stroke-linejoin:miter;stroke-miterlimit:4;stroke-dasharray:none;stroke-opacity:0.668293"
         d="m 127.516,127.683 c 0,0 -14.373,10.721 -0.063,-25.291 3.707,-9.0894 6.042,-20.434 9.159,-33.5272 20.288,-46.3989 11.813,-42.4025 11.813,-42.4025"
         id="path1381" />
      <path
         style="opacity:1;fill:none;fill-opacity:1;stroke:#000000;stroke-width:1.54842px;stroke-linecap:butt;stroke-linejoin:miter;stroke-miterlimit:4;stroke-dasharray:none;stroke-opacity:0.67561"
         d="m 129.839,127.849 c 0,0 -12.398,10.419 1.998,-25.356 3.747,-9.0761 5.902,-20.3734 8.644,-33.3243 18.639,-45.3357 9.105,-43.0909 9.105,-43.0909"
         id="path1383" />
      <path
         style="opacity:1;fill:none;fill-opacity:1;stroke:#000000;stroke-width:1.49884px;stroke-linecap:butt;stroke-linejoin:miter;stroke-miterlimit:4;stroke-dasharray:none;stroke-opacity:0.682927"
         d="m 132.163,128.015 c 0,0 -10.425,10.117 4.059,-25.421 3.786,-9.0628 5.76,-20.3127 8.128,-33.1214 16.991,-44.2725 6.398,-43.7793 6.398,-43.7793"
         id="path1385" />
      <path
         style="opacity:1;fill:none;fill-opacity:1;stroke:#000000;stroke-width:1.44926px;stroke-linecap:butt;stroke-linejoin:miter;stroke-miterlimit:4;stroke-dasharray:none;stroke-opacity:0.690244"
         d="m 134.486,128.18 c 0,0 -8.45,9.816 6.12,-25.485 3.827,-9.0495 5.62,-20.252 7.613,-32.9184 15.342,-43.2094 3.691,-44.4678 3.691,-44.4678"
         id="path1387" />
      <path
         style="opacity:1;fill:none;fill-opacity:1;stroke:#000000;stroke-width:1.39968px;stroke-linecap:butt;stroke-linejoin:miter;stroke-miterlimit:4;stroke-dasharray:none;stroke-opacity:0.697561"
         d="m 136.809,128.346 c 0,0 -6.476,9.515 8.182,-25.551 3.866,-9.0352 5.479,-20.1904 7.097,-32.7145 13.693,-42.1462 0.983,-45.1561 0.983,-45.1561"
         id="path1389" />
      <path
         style="opacity:1;fill:none;fill-opacity:1;stroke:#000000;stroke-width:1.3501px;stroke-linecap:butt;stroke-linejoin:miter;stroke-miterlimit:4;stroke-dasharray:none;stroke-opacity:0.704878"
         d="m 139.132,128.512 c 0,0 -4.501,9.213 10.244,-25.616 3.906,-9.0219 5.337,-20.1297 6.581,-32.5116 12.045,-41.083 -1.724,-45.8445 -1.724,-45.8445"
         id="path1391" />
      <path
         style="opacity:1;fill:none;fill-opacity:1;stroke:#000000;stroke-width:1.30052px;stroke-linecap:butt;stroke-linejoin:miter;stroke-miterlimit:4;stroke-dasharray:none;stroke-opacity:0.712195"
         d="m 141.455,128.678 c 0,0 -2.526,8.911 12.305,-25.681 3.946,-9.0086 5.197,-20.0691 6.066,-32.3087 10.396,-40.0198 -4.432,-46.5329 -4.432,-46.5329"
         id="path1393" />
      <path
         style="opacity:1;fill:none;fill-opacity:1;stroke:#000000;stroke-width:1.25094px;stroke-linecap:butt;stroke-linejoin:miter;stroke-miterlimit:4;stroke-dasharray:none;stroke-opacity:0.719512"
         d="m 143.778,128.843 c 0,0 -0.552,8.61 14.367,-25.745 3.986,-8.9953 5.056,-20.0084 5.55,-32.1058 8.747,-38.9566 -7.139,-47.2213 -7.139,-47.2213"
         id="path1395" />
      <path
         style="opacity:1;fill:none;fill-opacity:1;stroke:#000000;stroke-width:1.20136px;stroke-linecap:butt;stroke-linejoin:miter;stroke-miterlimit:4;stroke-dasharray:none;stroke-opacity:0.726829"
         d="m 146.102,129.009 c 0,0 1.422,8.308 16.427,-25.81 4.026,-8.982 4.915,-19.9478 5.035,-31.9029 7.099,-37.8933 -9.847,-47.9097 -9.847,-47.9097"
         id="path1397" />
      <path
         style="opacity:1;fill:none;fill-opacity:1;stroke:#000000;stroke-width:1.15178px;stroke-linecap:butt;stroke-linejoin:miter;stroke-miterlimit:4;stroke-dasharray:none;stroke-opacity:0.734146"
         d="m 148.425,129.175 c 0,0 3.397,8.006 18.489,-25.875 4.065,-8.9687 4.774,-19.8871 4.519,-31.7 5.45,-36.8301 -12.554,-48.598 -12.554,-48.598"
         id="path1399" />
      <path
         style="opacity:1;fill:none;fill-opacity:1;stroke:#000000;stroke-width:1.1022px;stroke-linecap:butt;stroke-linejoin:miter;stroke-miterlimit:4;stroke-dasharray:none;stroke-opacity:0.741463"
         d="m 150.748,129.341 c 0,0 5.371,7.704 20.55,-25.94 4.106,-8.9554 4.633,-19.8264 4.004,-31.4971 3.801,-35.7669 -15.261,-49.2864 -15.261,-49.2864"
         id="path1401" />
      <path
         style="opacity:1;fill:none;fill-opacity:1;stroke:#000000;stroke-width:1.05262px;stroke-linecap:butt;stroke-linejoin:miter;stroke-miterlimit:4;stroke-dasharray:none;stroke-opacity:0.74878"
         d="m 153.071,129.506 c 0,0 7.346,7.403 22.612,-26.004 4.145,-8.9421 4.492,-19.7658 3.488,-31.2942 C 181.323,37.5041 161.202,22.233 161.202,22.233"
         id="path1403" />
      <path
         style="opacity:1;fill:none;fill-opacity:1;stroke:#000000;stroke-width:1.00304px;stroke-linecap:butt;stroke-linejoin:miter;stroke-miterlimit:4;stroke-dasharray:none;stroke-opacity:0.756098"
         d="m 155.394,129.672 c 0,0 9.32,7.102 24.674,-26.069 4.185,-8.9288 4.351,-19.7051 2.971,-31.0913 0.505,-33.6405 -20.675,-50.6632 -20.675,-50.6632"
         id="path1405" />
      <path
         style="opacity:1;fill:none;fill-opacity:1;stroke:#000000;stroke-width:0.953457px;stroke-linecap:butt;stroke-linejoin:miter;stroke-miterlimit:4;stroke-dasharray:none;stroke-opacity:0.763415"
         d="m 157.717,129.838 c 0,0 11.295,6.8 26.735,-26.134 4.225,-8.9155 4.21,-19.6445 2.456,-30.8884 -1.144,-32.5773 -23.383,-51.3515 -23.383,-51.3515"
         id="path1407" />
      <path
         style="opacity:1;fill:none;fill-opacity:1;stroke:#000000;stroke-width:0.903877px;stroke-linecap:butt;stroke-linejoin:miter;stroke-miterlimit:4;stroke-dasharray:none;stroke-opacity:0.770732"
         d="m 160.041,130.004 c 0,0 13.269,6.498 28.796,-26.199 4.264,-8.9022 4.069,-19.5838 1.94,-30.6855 -2.793,-31.5141 -26.09,-52.0399 -26.09,-52.0399"
         id="path1409" />
      <path
         style="opacity:1;fill:none;fill-opacity:1;stroke:#000000;stroke-width:0.854297px;stroke-linecap:butt;stroke-linejoin:miter;stroke-miterlimit:4;stroke-dasharray:none;stroke-opacity:0.778049"
         d="m 162.364,130.169 c 0,0 15.243,6.197 30.857,-26.263 4.305,-8.8889 3.929,-19.5232 1.425,-30.4826 -4.441,-30.4509 -28.797,-52.7283 -28.797,-52.7283"
         id="path1411" />
      <path
         style="opacity:1;fill:none;fill-opacity:1;stroke:#000000;stroke-width:0.804716px;stroke-linecap:butt;stroke-linejoin:miter;stroke-miterlimit:4;stroke-dasharray:none;stroke-opacity:0.785366"
         d="m 164.687,130.335 c 0,0 17.218,5.895 32.919,-26.329 4.344,-8.8746 3.787,-19.4615 0.909,-30.2787 C 192.425,44.3396 167.01,20.3106 167.01,20.3106"
         id="path1413" />
      <path
         style="opacity:1;fill:none;fill-opacity:1;stroke:#000000;stroke-width:0.755136px;stroke-linecap:butt;stroke-linejoin:miter;stroke-miterlimit:4;stroke-dasharray:none;stroke-opacity:0.792683"
         d="m 167.01,130.501 c 0,0 19.192,5.593 34.98,-26.394 4.385,-8.8613 3.647,-19.4008 0.394,-30.0758 -7.739,-28.3245 -34.212,-54.1051 -34.212,-54.1051"
         id="path1415" />
    </g>
    <g
       aria-label="DB"
       transform="matrix(0.86244432,0.00141062,-0.00125592,1.1064439,3.1528357,0)"
       id="g6769"
       style="font-size:102.995px;line-height:1.25;font-family:ImePrezime;-inkscape-font-specification:ImePrezime;display:inline;fill:none;fill-opacity:1;stroke:#000000;stroke-width:2.82222;stroke-miterlimit:4;stroke-dasharray:none;stroke-opacity:0.3"
       inkscape:label="Tekst">
      <path
         id="path6767"
         d="m 192.06788,85.415093 q 0,0 2.67787,0 0.20599,0 1.95691,1.02995 1.85391,1.02995 2.16289,1.44193 0.103,0.102995 0.72097,1.02995 0.72096,0.82396 1.23594,1.544925 0.51497,0.720965 0.51497,1.132945 0,0.102995 0,0.926955 0.103,0.82396 0.103,1.44193 0,0.61797 -0.20599,1.44193 -0.20599,0.720965 -0.72097,1.132945 -3.08985,2.67787 -5.35574,3.08985 -3.08985,0.823957 -3.08985,0.823957 z m -3.50183,-28.632611 5.35574,0.61797 q 1.02995,0.82396 1.02995,2.26589 0,0.41198 0.20599,1.23594 0.30899,0.82396 0.20599,1.544925 0,0.720965 -0.61797,1.544925 -0.51497,0.720965 -1.23594,1.544925 -0.72096,0.720965 -1.13294,1.23594 -0.30899,0.514975 -0.51498,0.926955 -0.20599,0.41198 -1.13294,0.82396 -0.92696,0.41198 -1.75092,0.61797 l -0.82396,0.20599 q 0.20599,-7.62163 0.41198,-12.56539 z m -7.62163,-9.88752 1.23594,61.385018 q 19.15707,0.20599 19.15707,0 0,-0.20599 7.82762,-7.00366 l 2.0599,-10.299497 -3.08985,-7.41564 -7.62163,-7.41564 q -0.61797,-0.61797 0.20599,-2.67787 1.23594,-3.08985 1.23594,-12.977371 0,-1.544925 -0.61797,-4.634775 -0.51497,-3.08985 -1.02995,-3.604825 -0.51497,-0.514975 -3.19284,-2.26589 l -2.78087,-1.64792 q -0.10299,-0.102995 -13.38935,-1.44193 z M 91.235775,91.903778 q 9.681525,-2.88386 14.007325,-6.694675 3.29584,-5.252745 3.70782,-13.59534 -0.51498,-6.488686 -4.32579,-13.904326 -5.66473,-3.604825 -12.771385,-4.94376 -0.41198,23.894841 -0.61797,39.138101 z M 76.404494,108.27998 V 36.801452 l 22.246921,0.41198 q 13.183365,6.076705 20.804995,15.65524 5.76772,9.68153 8.44559,23.276871 -1.13295,10.608485 -10.50549,19.36306 -0.51498,1.132945 -5.04676,4.531777 -4.42878,3.39884 -8.65158,6.07671 -4.1198,2.67787 -3.810815,2.16289 0,-0.10299 -3.604825,-0.10299 -3.604825,0 -10.196505,0.10299 -6.488686,0 -9.681531,0 z"
         style="fill:none;fill-opacity:1;stroke:#000000;stroke-width:2.82222;stroke-miterlimit:4;stroke-dasharray:none;stroke-opacity:0.3" />
    </g>
  </g>
</svg>
