<?xml version="1.0" encoding="UTF-8" standalone="no"?>
<!-- Created with Inkscape (http://www.inkscape.org/) -->

<svg
   width="420mm"
   height="297mm"
   viewBox="0 0 1587.4016 1122.5197"
   version="1.1"
   id="svg5"
   inkscape:version="1.1.2 (b8e25be833, 2022-02-05)"
   sodipodi:docname="Dominik Banek - Projektni zadatak.svg"
   xmlns:inkscape="http://www.inkscape.org/namespaces/inkscape"
   xmlns:sodipodi="http://sodipodi.sourceforge.net/DTD/sodipodi-0.dtd"
   xmlns:xlink="http://www.w3.org/1999/xlink"
   xmlns="http://www.w3.org/2000/svg"
   xmlns:svg="http://www.w3.org/2000/svg">
  <sodipodi:namedview
     id="namedview7"
     pagecolor="#ffffff"
     bordercolor="#666666"
     borderopacity="1.0"
     inkscape:pageshadow="2"
     inkscape:pageopacity="0.0"
     inkscape:pagecheckerboard="0"
     inkscape:document-units="mm"
     showgrid="false"
     inkscape:zoom="2.5620931"
     inkscape:cx="639.12587"
     inkscape:cy="435.58135"
     inkscape:window-width="1920"
     inkscape:window-height="1017"
     inkscape:window-x="-8"
     inkscape:window-y="-8"
     inkscape:window-maximized="1"
     inkscape:current-layer="layer1" />
  <defs
     id="defs2">
    <linearGradient
       id="plava"
       inkscape:swatch="solid">
      <stop
         style="stop-color:#0082ff;stop-opacity:1;"
         offset="0"
         id="stop57377" />
    </linearGradient>
    <linearGradient
       id="zlatno__uta"
       inkscape:swatch="solid">
      <stop
         style="stop-color:#f4d420;stop-opacity:1;"
         offset="0"
         id="stop57371" />
    </linearGradient>
    <linearGradient
       id="svijetlozelena"
       inkscape:swatch="solid">
      <stop
         style="stop-color:#00f56c;stop-opacity:1;"
         offset="0"
         id="stop57365" />
    </linearGradient>
    <linearGradient
       id="tamnoplava"
       inkscape:swatch="solid">
      <stop
         style="stop-color:#0006ff;stop-opacity:1;"
         offset="0"
         id="stop57359" />
    </linearGradient>
    <linearGradient
       inkscape:collect="always"
       id="linearGradient48098">
      <stop
         style="stop-color:#f3b631;stop-opacity:1;"
         offset="0"
         id="stop48094" />
      <stop
         style="stop-color:#f3f300;stop-opacity:1"
         offset="1"
         id="stop48096" />
    </linearGradient>
    <linearGradient
       inkscape:collect="always"
       id="linearGradient47770">
      <stop
         style="stop-color:#f3b631;stop-opacity:1;"
         offset="0"
         id="stop47766" />
      <stop
         style="stop-color:#ffff00;stop-opacity:0.95686269"
         offset="1"
         id="stop47768" />
    </linearGradient>
    <rect
       x="441.58068"
       y="82.59714"
       width="396.25269"
       height="56.605968"
       id="rect29645" />
    <linearGradient
       id="svijetloplava"
       inkscape:swatch="solid">
      <stop
         style="stop-color:#00e1ff;stop-opacity:1;"
         offset="0"
         id="stop2241" />
    </linearGradient>
    <linearGradient
       inkscape:collect="always"
       id="linearGradient852">
      <stop
         style="stop-color:#0000ff;stop-opacity:1;"
         offset="0"
         id="stop848" />
      <stop
         style="stop-color:#00f6ff;stop-opacity:0.99593496"
         offset="1"
         id="stop850" />
    </linearGradient>
    <linearGradient
       inkscape:collect="always"
       xlink:href="#linearGradient852"
       id="linearGradient854"
       x1="797.78522"
       y1="1122.5197"
       x2="797.78522"
       y2="1.5611918"
       gradientUnits="userSpaceOnUse" />
    <linearGradient
       inkscape:collect="always"
       xlink:href="#svijetloplava"
       id="linearGradient2245"
       x1="-445.99649"
       y1="155.45795"
       x2="-258.32469"
       y2="155.45795"
       gradientUnits="userSpaceOnUse" />
    <linearGradient
       inkscape:collect="always"
       xlink:href="#linearGradient47770"
       id="linearGradient47772"
       x1="1062.0016"
       y1="548.46478"
       x2="1257.953"
       y2="551.77661"
       gradientUnits="userSpaceOnUse" />
    <linearGradient
       inkscape:collect="always"
       xlink:href="#linearGradient48098"
       id="linearGradient48100"
       x1="1257.953"
       y1="551.77661"
       x2="1303.215"
       y2="551.22467"
       gradientUnits="userSpaceOnUse" />
    <linearGradient
       inkscape:collect="always"
       xlink:href="#tamnoplava"
       id="linearGradient57363"
       x1="-450.41229"
       y1="402.74313"
       x2="-258.32469"
       y2="402.74313"
       gradientUnits="userSpaceOnUse" />
    <linearGradient
       inkscape:collect="always"
       xlink:href="#svijetlozelena"
       id="linearGradient57369"
       x1="-454.82809"
       y1="642.30065"
       x2="-258.32469"
       y2="642.30065"
       gradientUnits="userSpaceOnUse" />
    <linearGradient
       inkscape:collect="always"
       xlink:href="#zlatno__uta"
       id="linearGradient57375"
       x1="-759.5188"
       y1="484.43556"
       x2="-551.97588"
       y2="484.43556"
       gradientUnits="userSpaceOnUse" />
    <linearGradient
       inkscape:collect="always"
       xlink:href="#plava"
       id="linearGradient57381"
       x1="-441.58069"
       y1="875.2345"
       x2="-238.45357"
       y2="875.2345"
       gradientUnits="userSpaceOnUse" />
    <linearGradient
       inkscape:collect="always"
       xlink:href="#linearGradient47770"
       id="linearGradient60631"
       gradientUnits="userSpaceOnUse"
       x1="1062.0016"
       y1="548.46478"
       x2="1257.953"
       y2="551.77661" />
    <linearGradient
       inkscape:collect="always"
       xlink:href="#linearGradient48098"
       id="linearGradient60633"
       gradientUnits="userSpaceOnUse"
       x1="1257.953"
       y1="551.77661"
       x2="1303.215"
       y2="551.22467" />
    <linearGradient
       inkscape:collect="always"
       xlink:href="#linearGradient47770"
       id="linearGradient60931"
       gradientUnits="userSpaceOnUse"
       x1="1062.0016"
       y1="548.46478"
       x2="1257.953"
       y2="551.77661" />
    <linearGradient
       inkscape:collect="always"
       xlink:href="#linearGradient48098"
       id="linearGradient60933"
       gradientUnits="userSpaceOnUse"
       x1="1257.953"
       y1="551.77661"
       x2="1303.215"
       y2="551.22467" />
    <linearGradient
       inkscape:collect="always"
       xlink:href="#linearGradient47770"
       id="linearGradient61069"
       gradientUnits="userSpaceOnUse"
       x1="1062.0016"
       y1="548.46478"
       x2="1257.953"
       y2="551.77661" />
    <linearGradient
       inkscape:collect="always"
       xlink:href="#linearGradient48098"
       id="linearGradient61071"
       gradientUnits="userSpaceOnUse"
       x1="1257.953"
       y1="551.77661"
       x2="1303.215"
       y2="551.22467" />
    <meshgradient
       inkscape:collect="always"
       id="meshgradient959"
       gradientUnits="userSpaceOnUse"
       x="1046.0198"
       y="496.46906">
      <meshrow
         id="meshrow11667">
        <meshpatch
           id="meshpatch11669">
          <stop
             path="c 21.4789,0  42.9579,0  64.4368,0"
             style="stop-color:#ffffff;stop-opacity:1"
             id="stop11671" />
          <stop
             path="c 0,9.10714  0,18.2143  0,27.3214"
             style="stop-color:#000000;stop-opacity:1"
             id="stop11673" />
          <stop
             path="c -21.4789,0  -42.9579,0  -64.4368,0"
             style="stop-color:#ffffff;stop-opacity:1"
             id="stop11675" />
          <stop
             path="c 0,-9.10714  0,-18.2143  0,-27.3214"
             style="stop-color:#000000;stop-opacity:1"
             id="stop11677" />
        </meshpatch>
        <meshpatch
           id="meshpatch11679">
          <stop
             path="c 21.4789,0  42.9579,0  64.4368,0"
             id="stop11681" />
          <stop
             path="c 0,9.10714  -4.29343,3.773  -4.29336,12.8801"
             style="stop-color:#ffffff;stop-opacity:1"
             id="stop11683" />
          <stop
             path="c -21.4789,-0.000230801  -38.6644,14.4413  -60.1434,14.4413"
             style="stop-color:#000000;stop-opacity:1"
             id="stop11685" />
        </meshpatch>
        <meshpatch
           id="meshpatch11687">
          <stop
             path="c 21.4789,0  42.9579,0  64.4368,0"
             id="stop11689" />
          <stop
             path="c 0,9.10714  0,18.2143  0,27.3214"
             style="stop-color:#000000;stop-opacity:1"
             id="stop11691" />
          <stop
             path="c -21.4789,0  -47.2514,-14.4413  -68.7302,-14.4413"
             style="stop-color:#ffffff;stop-opacity:1"
             id="stop11693" />
        </meshpatch>
        <meshpatch
           id="meshpatch11695">
          <stop
             path="c 21.4789,0  42.9579,0  64.4368,0"
             id="stop11697" />
          <stop
             path="c 0,9.10714  0,18.2143  0,27.3214"
             style="stop-color:#ffffff;stop-opacity:1"
             id="stop11699" />
          <stop
             path="c -21.4789,0  -42.9579,0  -64.4368,0"
             style="stop-color:#000000;stop-opacity:1"
             id="stop11701" />
        </meshpatch>
      </meshrow>
      <meshrow
         id="meshrow11703">
        <meshpatch
           id="meshpatch11705">
          <stop
             path="c 0,9.10714  -30.4438,17.824  -30.4439,26.9311"
             id="stop11707" />
          <stop
             path="c -21.4789,3.52734e-05  -12.514,0.390342  -33.9929,0.390342"
             style="stop-color:#ffb200;stop-opacity:1"
             id="stop11709" />
          <stop
             path="c 0,-9.10714  0,-18.2143  0,-27.3214"
             style="stop-color:#ffffff;stop-opacity:1"
             id="stop11711" />
        </meshpatch>
        <meshpatch
           id="meshpatch11713">
          <stop
             path="c 0.000136057,9.10694  46.4463,31.4847  46.4464,40.5918"
             id="stop11715" />
          <stop
             path="c -21.4789,5.8789e-05  -115.555,0.780671  -137.034,0.780612"
             style="stop-color:#ffff00;stop-opacity:1"
             id="stop11717" />
        </meshpatch>
        <meshpatch
           id="meshpatch11719">
          <stop
             path="c 0,9.10714  0,18.2143  0,27.3214"
             id="stop11721" />
          <stop
             path="c -21.4789,0  -0.804898,-1.17092  -22.2838,-1.17092"
             style="stop-color:#000000;stop-opacity:1"
             id="stop11723" />
        </meshpatch>
        <meshpatch
           id="meshpatch11725">
          <stop
             path="c 0,9.10714  0,18.2143  0,27.3214"
             id="stop11727" />
          <stop
             path="c -21.4789,0  -42.9579,0  -64.4368,0"
             style="stop-color:#ffffff;stop-opacity:1"
             id="stop11729" />
        </meshpatch>
      </meshrow>
      <meshrow
         id="meshrow11731">
        <meshpatch
           id="meshpatch11733">
          <stop
             path="c 0.000114728,9.1072  30.4439,18.6046  30.4439,27.7117"
             id="stop11735" />
          <stop
             path="c -21.4789,0  -42.9579,0  -64.4368,0"
             style="stop-color:#ffffff;stop-opacity:1"
             id="stop11737" />
          <stop
             path="c 0,-9.10714  0,-18.2143  0,-27.3214"
             style="stop-color:#000000;stop-opacity:1"
             id="stop11739" />
        </meshpatch>
        <meshpatch
           id="meshpatch11741">
          <stop
             path="c 4.74767e-05,9.10722  -51.9107,33.4362  -51.9107,42.5433"
             id="stop11743" />
          <stop
             path="c -21.4789,-6.40828e-05  -33.2003,-14.051  -54.6791,-14.051"
             style="stop-color:#000000;stop-opacity:1"
             id="stop11745" />
        </meshpatch>
        <meshpatch
           id="meshpatch11747">
          <stop
             path="c 0,9.10714  0,18.2143  0,27.3214"
             id="stop11749" />
          <stop
             path="c -21.4789,0  -52.7155,14.0511  -74.1945,14.051"
             style="stop-color:#ffffff;stop-opacity:1"
             id="stop11751" />
        </meshpatch>
        <meshpatch
           id="meshpatch11753">
          <stop
             path="c 0,9.10714  0,18.2143  0,27.3214"
             id="stop11755" />
          <stop
             path="c -21.4789,0  -42.9579,0  -64.4368,0"
             style="stop-color:#000000;stop-opacity:1"
             id="stop11757" />
        </meshpatch>
      </meshrow>
      <meshrow
         id="meshrow11759">
        <meshpatch
           id="meshpatch11761">
          <stop
             path="c 0,9.10714  0,18.2143  0,27.3214"
             id="stop11763" />
          <stop
             path="c -21.4789,0  -42.9579,0  -64.4368,0"
             style="stop-color:#000000;stop-opacity:1"
             id="stop11765" />
          <stop
             path="c 0,-9.10714  0,-18.2143  0,-27.3214"
             style="stop-color:#ffffff;stop-opacity:1"
             id="stop11767" />
        </meshpatch>
        <meshpatch
           id="meshpatch11769">
          <stop
             path="c -8.10891e-06,9.10708  9.75765,4.16326  9.75765,13.2704"
             id="stop11771" />
          <stop
             path="c -21.4789,0  -42.9579,0  -64.4368,0"
             style="stop-color:#ffffff;stop-opacity:1"
             id="stop11773" />
        </meshpatch>
        <meshpatch
           id="meshpatch11775">
          <stop
             path="c 0,9.10714  0,18.2143  0,27.3214"
             id="stop11777" />
          <stop
             path="c -21.4789,0  -42.9579,0  -64.4368,-1.13687e-13"
             style="stop-color:#000000;stop-opacity:1"
             id="stop11779" />
        </meshpatch>
        <meshpatch
           id="meshpatch11781">
          <stop
             path="c 0,9.10714  0,18.2143  0,27.3214"
             id="stop11783" />
          <stop
             path="c -21.4789,0  -42.9579,0  -64.4368,0"
             style="stop-color:#ffffff;stop-opacity:1"
             id="stop11785" />
        </meshpatch>
      </meshrow>
    </meshgradient>
  </defs>
  <g
     inkscape:label="Sloj 1"
     inkscape:groupmode="layer"
     id="layer1">
    <rect
       style="fill:url(#linearGradient854);fill-opacity:1;fill-rule:evenodd"
       id="rect846"
       width="1587.7643"
       height="1124.0809"
       x="1.5612235"
       y="-3.1719057e-05"
       inkscape:label="pozadina" />
    <g
       id="g57277"
       inkscape:label="swatch">
      <rect
         style="fill:url(#linearGradient2245);fill-opacity:1;fill-rule:evenodd"
         id="rect2151"
         width="187.6718"
         height="185.46388"
         x="-445.99649"
         y="62.726009" />
      <rect
         style="fill:url(#linearGradient57363);fill-opacity:1;fill-rule:evenodd"
         id="rect2153"
         width="192.0876"
         height="158.96904"
         x="-450.41229"
         y="323.25861" />
      <rect
         style="fill:url(#linearGradient57369);fill-opacity:1;fill-rule:evenodd"
         id="rect2155"
         width="196.5034"
         height="134.68211"
         x="-454.82809"
         y="574.95959" />
      <rect
         style="fill:url(#linearGradient57381);fill-opacity:1;fill-rule:evenodd"
         id="rect2157"
         width="203.12712"
         height="167.80066"
         x="-441.58069"
         y="791.33417" />
      <rect
         style="fill:url(#linearGradient57375);fill-opacity:1;fill-rule:evenodd"
         id="rect2159"
         width="207.54292"
         height="172.21646"
         x="-759.5188"
         y="398.32733" />
    </g>
    <text
       xml:space="preserve"
       id="text29643"
       style="font-size:40px;line-height:1.25;font-family:ImePrezime;-inkscape-font-specification:ImePrezime;white-space:pre;shape-inside:url(#rect29645)"
       transform="matrix(2.6338914,0,0,1.9527092,-858.83231,-65.453649)"
       inkscape:label="tekst"><tspan
         x="441.58008"
         y="119.59766"
         id="tspan12599">Pod  morem
</tspan></text>
    <g
       id="g61067"
       inkscape:label="riba"
       transform="translate(-778.67059,-65.69098)"
       style="opacity:0.40681">
      <ellipse
         style="fill:url(#linearGradient61069);fill-opacity:1;fill-rule:evenodd;stroke:#f3d700;stroke-width:1.00157;stroke-linecap:round;stroke-linejoin:round"
         id="ellipse61061"
         cx="1152.183"
         cy="551.11188"
         rx="106.1632"
         ry="54.642822" />
      <path
         style="fill:url(#linearGradient61071);fill-opacity:1;stroke:#d26700;stroke-width:1px;stroke-linecap:butt;stroke-linejoin:miter;stroke-opacity:1"
         d="m 1257.953,551.77663 45.814,-52.43771 -1.104,87.76416 z"
         id="path61063" />
      <ellipse
         style="fill:#000000;fill-opacity:1;fill-rule:evenodd;stroke:#000000;stroke-width:1.00157;stroke-linecap:round;stroke-linejoin:round;stroke-opacity:1"
         id="ellipse61065"
         cx="1090.9802"
         cy="533.8374"
         rx="10.211554"
         ry="9.6595774" />
    </g>
    <g
       id="g48454"
       inkscape:label="grass">
      <g
         id="g33600"
         transform="matrix(0.96969033,-0.38988495,0.37750445,1.0014919,-324.29893,44.673931)"
         style="opacity:0.503584"
         inkscape:label="g33600">
        <path
           style="fill:#00f66c;fill-opacity:0.995935;stroke:#000000;stroke-width:1px;stroke-linecap:butt;stroke-linejoin:miter;stroke-opacity:1"
           d="m -72.55045,1049.5548 187.105,-32.6677 c 0,0 272.12863,-227.28212 139.42463,-320.95553 -48.21544,-34.03443 50.7115,-390.33617 78.3103,-435.5982 27.59879,-45.26202 -25.39089,-185.463891 -25.39089,-185.463891 0,0 -32.01462,94.939851 -25.39091,133.578161 6.62371,38.63831 -404.01853,825.23946 -319.110063,859.61046 74.53096,30.1702 -34.948067,-18.5033 -34.948067,-18.5033 z"
           id="path33596"
           sodipodi:nodetypes="ccsscssc" />
        <path
           style="fill:none;stroke:#000000;stroke-width:0.806016px;stroke-linecap:butt;stroke-linejoin:miter;stroke-opacity:1"
           d="m 306.6871,74.773135 c -2.51793,14.950885 -1.72072,9.002852 -2.81091,17.896511 -0.77351,6.310242 0.009,8.672274 -0.71623,14.588294 -2.11046,17.21698 -4.87063,30.98877 -7.0697,48.92856 -0.97401,7.94584 -4.7902,26.27992 -3.9835,32.49699 0.0822,0.63331 0.8312,0.66078 0.91339,1.29409 0.40037,3.08564 -2.02656,9.26449 -0.3541,11.63402 0.21529,0.30502 0.98528,-0.59617 1.09445,-0.18306 0.54583,2.06553 -1.11629,5.10233 -0.90534,7.38567 0.18868,2.04229 1.27595,3.50013 1.46463,5.54242 0.3063,3.31553 -3.42707,35.7638 -4.88884,39.88268 -0.33314,0.93868 -2.39897,3.85885 -2.73211,4.79753 -1.08506,3.05742 -1.11239,6.03523 -2.18086,9.04588 -1.37319,3.86928 -4.36789,7.47287 -5.64528,11.07223 -2.88497,8.12905 -6.87975,18.07963 -10.73932,26.39276 -2.22352,4.78921 -13.11712,25.65021 -14.38481,29.89622 -0.44111,1.47744 -0.15102,2.94707 -0.5432,4.43142 -0.58465,2.21274 -2.25562,4.07224 -2.91318,6.27467 -1.89965,6.36265 -5.16604,13.44094 -6.73169,19.93502 -0.35854,1.48713 -0.0684,2.96081 -0.5432,4.43141 -1.99162,6.169 -3.27836,5.21989 -4.55084,10.88915 -2.12058,9.44776 -2.93829,14.3942 -7.2749,24.36643 -1.16984,2.6901 -4.38567,10.01956 -5.82634,12.54935 -0.25259,0.44353 -0.87732,-0.28463 -1.09446,0.18306 -0.6514,1.40306 0.1082,3.02836 -0.5432,4.43141 -1.05151,2.26483 -1.86167,4.00984 -2.91317,6.27467 -0.77686,1.67325 0.0526,4.2353 -0.72428,5.90855 -1.79405,3.86419 -4.69899,7.38937 -6.73973,11.25526 -4.64365,8.79673 -4.63545,24.66207 -6.90472,30.09192 -0.99592,2.38303 -4.05789,2.73162 -4.921,5.16367 -1.72477,4.85991 -3.28532,10.22406 -5.09405,15.32056 -0.55393,1.56083 -3.97109,14.99085 -3.99958,15.13748 -0.6745,3.47205 -0.23823,6.89262 -1.26747,10.33996 -2.16207,7.24161 -1.04395,-1.66307 -3.09425,7.7518 -1.301,5.97413 -1.73135,11.94691 -3.26727,17.9087 -1.21006,4.69694 -3.46795,9.18086 -4.91296,13.84343 -2.75375,8.88534 -4.22477,18.36523 -6.54258,27.13763 -0.68702,2.60021 -2.16071,4.15443 -2.91318,6.27467 -2.61298,7.3627 -1.86835,19.42882 -3.25923,26.58847 -6.70889,34.53463 -2.24269,2.58966 -7.26685,33.04618 -0.81675,4.95112 0.10461,9.97311 -1.81068,14.77136 -0.54172,1.35715 -1.83663,2.0659 -2.55104,3.3204 -1.62926,2.86096 -1.66818,13.60883 -1.99175,16.24849 -0.88808,7.24488 -3.19189,16.81979 -2.89709,23.63418 0.0904,2.09035 1.20477,3.53973 1.46463,5.54242 0.29629,2.28342 -0.10718,4.91921 0.18911,7.20262 -2.30102,5.33817 1.74147,4.42768 2.37801,6.8365 2.12926,8.05747 3.11799,17.86831 3.12641,26.96719 0.003,2.8539 -1.03747,5.99002 -1.08641,8.86283 -0.12205,7.16462 1.85391,11.9953 2.02393,18.47051 0.11451,4.36158 -1.07321,16.20731 -1.25944,19.01971 -0.73221,11.05763 -3.97937,23.1025 -4.16457,33.97414 -0.49805,29.23607 1.74768,28.99682 0.22932,50.60138 -1.01853,14.49264 -4.72433,29.8993 -5.43204,44.31409 -0.32337,6.58623 0.19689,13.52832 -1.4405,20.49684 -4.61655,19.6473 -11.5935,38.65949 -17.8251,57.96174 -3.93719,12.1954 -5.37629,24.6256 -10.91234,36.5497 -0.61415,1.3227 -1.9369,1.9976 -2.55106,3.3205 -0.43426,0.9353 0.23917,2.1715 -0.36212,2.9541 -0.30065,0.3914 -0.79381,-0.2082 -1.09445,0.1831 -0.63905,0.8318 -0.98253,5.0033 -1.81872,6.0916 -2.16654,2.82 -5.13059,4.195 -7.29098,7.007 -0.58964,0.7675 -0.10348,3.4842 -0.54322,4.4315 -1.79991,3.8768 -1.03194,-0.3269 -1.45658,3.1372"
           id="path33598" />
      </g>
      <g
         id="g2127"
         transform="matrix(0.79304807,0.17277023,-0.16636124,0.7636296,146.75893,219.20613)"
         style="opacity:0.684588"
         inkscape:label="g2127">
        <path
           style="fill:#00f66c;fill-opacity:0.995935;stroke:#000000;stroke-width:1px;stroke-linecap:butt;stroke-linejoin:miter;stroke-opacity:1"
           d="m 96.795858,1124.0809 170.173362,-1.5612 c 0,0 153.32719,-319.82895 20.62319,-413.50236 -48.21544,-34.03443 17.09827,-403.42194 44.69707,-448.68397 27.59879,-45.26202 -25.39089,-185.463891 -25.39089,-185.463891 0,0 -32.01462,94.939851 -25.39091,133.578161 6.62371,38.63831 -237.253793,502.14952 -152.34533,536.52054 74.53096,30.1702 -32.366492,379.11272 -32.366492,379.11272 z"
           id="path2123"
           sodipodi:nodetypes="ccsscssc" />
        <path
           style="fill:none;stroke:#000000;stroke-width:1.00831px;stroke-linecap:butt;stroke-linejoin:miter;stroke-opacity:1"
           d="m 306.78376,74.87006 c -1.01178,15.722222 -0.91123,9.430306 -0.91123,18.856578 0,6.688142 1.58286,9.385652 1.58286,15.655972 0,18.24805 -1.58286,32.65056 -1.58286,51.66471 0,8.42169 -2.31637,27.56979 0,34.44313 0.23596,0.70016 1.34689,0.86545 1.58286,1.56561 1.14965,3.41136 -1.31545,9.65807 1.58285,12.52478 0.37308,0.36901 1.34689,-0.46678 1.58285,0 1.17979,2.33385 -0.72474,5.31905 0,7.82797 0.64823,2.24406 2.51748,4.01834 3.16571,6.2624 1.05235,3.64308 1.41285,38.07876 0,42.27112 -0.32199,0.95543 -2.84372,3.74136 -3.16571,4.69679 -1.04875,3.11196 -0.55014,6.32922 -1.58285,9.39358 -1.32724,3.93831 -5.09677,7.29563 -6.33141,10.9592 -2.78844,8.27407 -6.88584,18.3183 -11.07998,26.61515 -2.41627,4.77984 -14.72526,25.38129 -15.82854,29.74634 -0.38391,1.51886 0.31042,3.16161 0,4.6968 -0.46276,2.28853 -2.59343,3.99822 -3.16571,6.26239 -1.65328,6.54103 -5.19507,13.60906 -6.33141,20.35276 -0.26023,1.54429 0.43484,3.19143 0,4.69679 -1.82413,6.31484 -3.89581,5.05494 -4.74856,10.95919 -1.42112,9.83935 -1.73321,15.04376 -6.33142,25.04955 -1.24041,2.69915 -4.6621,10.04811 -6.33141,12.52478 -0.29267,0.43422 -1.3469,-0.46678 -1.58286,0 -0.70787,1.40031 0.70787,3.29648 0,4.69679 -1.14266,2.26039 -2.02305,4.00199 -3.1657,6.26238 -0.8442,1.66998 0.84418,4.59242 0,6.2624 -1.94957,3.85662 -5.60076,7.14535 -7.91427,10.95917 -5.26433,8.67823 -2.38069,25.84717 -4.74856,31.31195 -1.03919,2.39835 -5.49718,2.22136 -6.33141,4.69679 -1.66705,4.94661 -3.00037,10.46856 -4.74857,15.65598 -0.5354,1.58867 -3.15018,15.50245 -3.1657,15.65596 -0.3675,3.63494 0.89576,7.4152 0,10.95919 -1.88167,7.44463 -1.84242,-1.98851 -3.16571,7.82798 -0.83968,6.22897 -0.39407,12.61406 -1.58285,18.78717 -0.93658,4.86341 -3.45886,9.30668 -4.74856,14.09038 -2.45779,9.11618 -2.91399,19.10787 -4.74856,28.18074 -0.54378,2.68927 -2.43842,4.10432 -3.16571,6.26239 -2.52554,7.49404 0.75782,20.68524 0,28.18076 -3.65532,36.15473 -2.84268,2.39629 -4.74856,34.44313 -0.30983,5.20965 1.95953,10.81057 0,15.65598 -0.55423,1.37048 -2.33792,1.90303 -3.16571,3.13119 -1.88783,2.80088 0,14.42382 0,17.22156 0,7.67875 -1.66864,17.62253 0,25.04956 0.51187,2.27828 2.41954,4.0483 3.16571,6.26239 0.85076,2.52445 0.73209,5.30354 1.58285,7.82799 -2.43134,5.35982 3.37271,5.10626 4.74856,7.82799 4.60226,9.10416 7.83784,19.89916 9.49712,29.74634 0.52044,3.0886 -0.4477,6.29386 0,9.39359 1.11654,7.73056 4.90842,13.31534 6.33142,20.35276 0.9585,4.74028 1.3488,17.34325 1.58285,20.35277 0.92023,11.83264 -1.69424,24.27835 0,36.00874 4.55616,31.54543 7.82873,31.693 9.49712,54.7959 1.11918,15.49775 -1.56402,31.49816 0,46.96792 0.71461,7.06826 2.73926,14.67427 1.58286,21.91836 -3.26043,20.42425 -10.12099,39.73405 -15.82854,59.49265 -3.60607,12.4837 -3.48117,25.6736 -9.49712,37.5743 -0.66739,1.3202 -2.49832,1.811 -3.16571,3.1313 -0.47191,0.9335 0.74617,2.3931 0,3.1311 -0.37308,0.3691 -1.20977,-0.369 -1.58285,0 -0.79302,0.7844 -0.54517,5.2361 -1.58285,6.2624 -2.68855,2.6593 -6.81618,3.6107 -9.49712,6.2624 -0.7317,0.7238 0.47784,3.7515 0,4.6969 -1.95594,3.8692 -1.58286,-0.5405 -1.58286,3.1311"
           id="path2125" />
      </g>
      <g
         id="g2121"
         transform="translate(-95.234634,3.2617188e-5)"
         inkscape:label="g2121">
        <path
           style="fill:#00f66c;fill-opacity:0.995935;stroke:#000000;stroke-width:1px;stroke-linecap:butt;stroke-linejoin:miter;stroke-opacity:1"
           d="m 96.795858,1124.0809 170.173362,-1.5612 c 0,0 153.32719,-319.82895 20.62319,-413.50236 -48.21544,-34.03443 17.09827,-403.42194 44.69707,-448.68397 27.59879,-45.26202 -25.39089,-185.463891 -25.39089,-185.463891 0,0 -32.01462,94.939851 -25.39091,133.578161 6.62371,38.63831 -237.253793,502.14952 -152.34533,536.52054 74.53096,30.1702 -32.366492,379.11272 -32.366492,379.11272 z"
           id="path1184"
           sodipodi:nodetypes="ccsscssc" />
        <path
           style="fill:none;stroke:#000000;stroke-width:1.00831px;stroke-linecap:butt;stroke-linejoin:miter;stroke-opacity:1"
           d="m 306.78376,74.87006 c -1.01178,15.722222 -0.91123,9.430306 -0.91123,18.856578 0,6.688142 1.58286,9.385652 1.58286,15.655972 0,18.24805 -1.58286,32.65056 -1.58286,51.66471 0,8.42169 -2.31637,27.56979 0,34.44313 0.23596,0.70016 1.34689,0.86545 1.58286,1.56561 1.14965,3.41136 -1.31545,9.65807 1.58285,12.52478 0.37308,0.36901 1.34689,-0.46678 1.58285,0 1.17979,2.33385 -0.72474,5.31905 0,7.82797 0.64823,2.24406 2.51748,4.01834 3.16571,6.2624 1.05235,3.64308 1.41285,38.07876 0,42.27112 -0.32199,0.95543 -2.84372,3.74136 -3.16571,4.69679 -1.04875,3.11196 -0.55014,6.32922 -1.58285,9.39358 -1.32724,3.93831 -5.09677,7.29563 -6.33141,10.9592 -2.78844,8.27407 -6.88584,18.3183 -11.07998,26.61515 -2.41627,4.77984 -14.72526,25.38129 -15.82854,29.74634 -0.38391,1.51886 0.31042,3.16161 0,4.6968 -0.46276,2.28853 -2.59343,3.99822 -3.16571,6.26239 -1.65328,6.54103 -5.19507,13.60906 -6.33141,20.35276 -0.26023,1.54429 0.43484,3.19143 0,4.69679 -1.82413,6.31484 -3.89581,5.05494 -4.74856,10.95919 -1.42112,9.83935 -1.73321,15.04376 -6.33142,25.04955 -1.24041,2.69915 -4.6621,10.04811 -6.33141,12.52478 -0.29267,0.43422 -1.3469,-0.46678 -1.58286,0 -0.70787,1.40031 0.70787,3.29648 0,4.69679 -1.14266,2.26039 -2.02305,4.00199 -3.1657,6.26238 -0.8442,1.66998 0.84418,4.59242 0,6.2624 -1.94957,3.85662 -5.60076,7.14535 -7.91427,10.95917 -5.26433,8.67823 -2.38069,25.84717 -4.74856,31.31195 -1.03919,2.39835 -5.49718,2.22136 -6.33141,4.69679 -1.66705,4.94661 -3.00037,10.46856 -4.74857,15.65598 -0.5354,1.58867 -3.15018,15.50245 -3.1657,15.65596 -0.3675,3.63494 0.89576,7.4152 0,10.95919 -1.88167,7.44463 -1.84242,-1.98851 -3.16571,7.82798 -0.83968,6.22897 -0.39407,12.61406 -1.58285,18.78717 -0.93658,4.86341 -3.45886,9.30668 -4.74856,14.09038 -2.45779,9.11618 -2.91399,19.10787 -4.74856,28.18074 -0.54378,2.68927 -2.43842,4.10432 -3.16571,6.26239 -2.52554,7.49404 0.75782,20.68524 0,28.18076 -3.65532,36.15473 -2.84268,2.39629 -4.74856,34.44313 -0.30983,5.20965 1.95953,10.81057 0,15.65598 -0.55423,1.37048 -2.33792,1.90303 -3.16571,3.13119 -1.88783,2.80088 0,14.42382 0,17.22156 0,7.67875 -1.66864,17.62253 0,25.04956 0.51187,2.27828 2.41954,4.0483 3.16571,6.26239 0.85076,2.52445 0.73209,5.30354 1.58285,7.82799 -2.43134,5.35982 3.37271,5.10626 4.74856,7.82799 4.60226,9.10416 7.83784,19.89916 9.49712,29.74634 0.52044,3.0886 -0.4477,6.29386 0,9.39359 1.11654,7.73056 4.90842,13.31534 6.33142,20.35276 0.9585,4.74028 1.3488,17.34325 1.58285,20.35277 0.92023,11.83264 -1.69424,24.27835 0,36.00874 4.55616,31.54543 7.82873,31.693 9.49712,54.7959 1.11918,15.49775 -1.56402,31.49816 0,46.96792 0.71461,7.06826 2.73926,14.67427 1.58286,21.91836 -3.26043,20.42425 -10.12099,39.73405 -15.82854,59.49265 -3.60607,12.4837 -3.48117,25.6736 -9.49712,37.5743 -0.66739,1.3202 -2.49832,1.811 -3.16571,3.1313 -0.47191,0.9335 0.74617,2.3931 0,3.1311 -0.37308,0.3691 -1.20977,-0.369 -1.58285,0 -0.79302,0.7844 -0.54517,5.2361 -1.58285,6.2624 -2.68855,2.6593 -6.81618,3.6107 -9.49712,6.2624 -0.7317,0.7238 0.47784,3.7515 0,4.6969 -1.95594,3.8692 -1.58286,-0.5405 -1.58286,3.1311"
           id="path1782" />
      </g>
      <g
         id="g41365"
         transform="matrix(-0.66658062,-0.36943856,-0.22962214,0.43128163,1223.9243,633.88498)"
         style="opacity:0.292115"
         inkscape:label="g41365">
        <path
           style="fill:#00f66c;fill-opacity:0.995935;stroke:#000000;stroke-width:1px;stroke-linecap:butt;stroke-linejoin:miter;stroke-opacity:1"
           d="m 96.795858,1124.0809 170.173362,-1.5612 c 0,0 -7.5199,-190.76684 -30.53106,-375.14321 -7.98417,-63.973 68.25252,-441.78109 95.85132,-487.04312 27.59879,-45.26202 -25.39089,-185.463891 -25.39089,-185.463891 0,0 -32.01462,94.939851 -25.39091,133.578161 6.62371,38.63831 -81.42266,241.79025 -152.34533,536.52054 -23.675,98.38518 -32.366492,379.11272 -32.366492,379.11272 z"
           id="path41361"
           sodipodi:nodetypes="ccsscssc" />
        <path
           style="fill:none;stroke:#000000;stroke-width:1.00831px;stroke-linecap:butt;stroke-linejoin:miter;stroke-opacity:1"
           d="m 306.78376,74.87006 c -1.01178,15.722222 -0.91123,9.430306 -0.91123,18.856578 0,6.688142 1.58286,9.385652 1.58286,15.655972 0,18.24805 -1.58286,32.65056 -1.58286,51.66471 0,8.42169 -2.31637,27.56979 0,34.44313 0.23596,0.70016 1.34689,0.86545 1.58286,1.56561 1.14965,3.41136 -1.31545,9.65807 1.58285,12.52478 0.37308,0.36901 1.34689,-0.46678 1.58285,0 1.17979,2.33385 -0.72474,5.31905 0,7.82797 0.64823,2.24406 2.51748,4.01834 3.16571,6.2624 1.05235,3.64308 1.41285,38.07876 0,42.27112 -0.32199,0.95543 -2.84372,3.74136 -3.16571,4.69679 -1.04875,3.11196 -0.55014,6.32922 -1.58285,9.39358 -1.32724,3.93831 -5.09677,7.29563 -6.33141,10.9592 -2.78844,8.27407 -6.88584,18.3183 -11.07998,26.61515 -2.41627,4.77984 -14.72526,25.38129 -15.82854,29.74634 -0.38391,1.51886 0.31042,3.16161 0,4.6968 -0.46276,2.28853 -2.59343,3.99822 -3.16571,6.26239 -1.65328,6.54103 -5.19507,13.60906 -6.33141,20.35276 -0.26023,1.54429 0.43484,3.19143 0,4.69679 -1.82413,6.31484 -3.89581,5.05494 -4.74856,10.95919 -1.42112,9.83935 -1.73321,15.04376 -6.33142,25.04955 -1.24041,2.69915 -4.6621,10.04811 -6.33141,12.52478 -0.29267,0.43422 -1.3469,-0.46678 -1.58286,0 -0.70787,1.40031 0.70787,3.29648 0,4.69679 -1.14266,2.26039 -2.02305,4.00199 -3.1657,6.26238 -0.8442,1.66998 0.84418,4.59242 0,6.2624 -1.94957,3.85662 -5.60076,7.14535 -7.91427,10.95917 -5.26433,8.67823 -2.38069,25.84717 -4.74856,31.31195 -1.03919,2.39835 -5.49718,2.22136 -6.33141,4.69679 -1.66705,4.94661 -3.00037,10.46856 -4.74857,15.65598 -0.5354,1.58867 -3.15018,15.50245 -3.1657,15.65596 -0.3675,3.63494 0.89576,7.4152 0,10.95919 -1.88167,7.44463 -1.84242,-1.98851 -3.16571,7.82798 -0.83968,6.22897 -0.39407,12.61406 -1.58285,18.78717 -0.93658,4.86341 -3.45886,9.30668 -4.74856,14.09038 -2.45779,9.11618 -2.91399,19.10787 -4.74856,28.18074 -0.54378,2.68927 -2.43842,4.10432 -3.16571,6.26239 -2.52554,7.49404 0.75782,20.68524 0,28.18076 -3.65532,36.15473 -2.84268,2.39629 -4.74856,34.44313 -0.30983,5.20965 1.95953,10.81057 0,15.65598 -0.55423,1.37048 -2.33792,1.90303 -3.16571,3.13119 -1.88783,2.80088 0,14.42382 0,17.22156 0,7.67875 -1.66864,17.62253 0,25.04956 0.51187,2.27828 2.41954,4.0483 3.16571,6.26239 0.85076,2.52445 0.73209,5.30354 1.58285,7.82799 -2.43134,5.35982 3.37271,5.10626 4.74856,7.82799 4.60226,9.10416 7.83784,19.89916 9.49712,29.74634 0.52044,3.0886 -0.4477,6.29386 0,9.39359 1.11654,7.73056 4.90842,13.31534 6.33142,20.35276 0.9585,4.74028 1.3488,17.34325 1.58285,20.35277 0.92023,11.83264 -1.69424,24.27835 0,36.00874 4.55616,31.54543 7.82873,31.693 9.49712,54.7959 1.11918,15.49775 -1.56402,31.49816 0,46.96792 0.71461,7.06826 2.73926,14.67427 1.58286,21.91836 -3.26043,20.42425 -10.12099,39.73405 -15.82854,59.49265 -3.60607,12.4837 -3.48117,25.6736 -9.49712,37.5743 -0.66739,1.3202 -2.49832,1.811 -3.16571,3.1313 -0.47191,0.9335 0.74617,2.3931 0,3.1311 -0.37308,0.3691 -1.20977,-0.369 -1.58285,0 -0.79302,0.7844 -0.54517,5.2361 -1.58285,6.2624 -2.68855,2.6593 -6.81618,3.6107 -9.49712,6.2624 -0.7317,0.7238 0.47784,3.7515 0,4.6969 -1.95594,3.8692 -1.58286,-0.5405 -1.58286,3.1311"
           id="path41363" />
      </g>
      <g
         id="g41359"
         transform="matrix(-1.1371794,0.01786802,0.02204418,0.85462882,939.85881,163.67761)"
         style="opacity:0.551971"
         inkscape:label="g41359">
        <path
           style="fill:#00f66c;fill-opacity:0.995935;stroke:#000000;stroke-width:1px;stroke-linecap:butt;stroke-linejoin:miter;stroke-opacity:1"
           d="m 96.795858,1124.0809 170.173362,-1.5612 c 0,0 -7.5199,-190.76684 -30.53106,-375.14321 -7.98417,-63.973 68.25252,-441.78109 95.85132,-487.04312 27.59879,-45.26202 -25.39089,-185.463891 -25.39089,-185.463891 0,0 -32.01462,94.939851 -25.39091,133.578161 6.62371,38.63831 -81.42266,241.79025 -152.34533,536.52054 -23.675,98.38518 -32.366492,379.11272 -32.366492,379.11272 z"
           id="path41355"
           sodipodi:nodetypes="ccsscssc" />
        <path
           style="fill:none;stroke:#000000;stroke-width:1.00831px;stroke-linecap:butt;stroke-linejoin:miter;stroke-opacity:1"
           d="m 306.78376,74.87006 c -1.01178,15.722222 -0.91123,9.430306 -0.91123,18.856578 0,6.688142 1.58286,9.385652 1.58286,15.655972 0,18.24805 -1.58286,32.65056 -1.58286,51.66471 0,8.42169 -2.31637,27.56979 0,34.44313 0.23596,0.70016 1.34689,0.86545 1.58286,1.56561 1.14965,3.41136 -1.31545,9.65807 1.58285,12.52478 0.37308,0.36901 1.34689,-0.46678 1.58285,0 1.17979,2.33385 -0.72474,5.31905 0,7.82797 0.64823,2.24406 2.51748,4.01834 3.16571,6.2624 1.05235,3.64308 1.41285,38.07876 0,42.27112 -0.32199,0.95543 -2.84372,3.74136 -3.16571,4.69679 -1.04875,3.11196 -0.55014,6.32922 -1.58285,9.39358 -1.32724,3.93831 -5.09677,7.29563 -6.33141,10.9592 -2.78844,8.27407 -6.88584,18.3183 -11.07998,26.61515 -2.41627,4.77984 -14.72526,25.38129 -15.82854,29.74634 -0.38391,1.51886 0.31042,3.16161 0,4.6968 -0.46276,2.28853 -2.59343,3.99822 -3.16571,6.26239 -1.65328,6.54103 -5.19507,13.60906 -6.33141,20.35276 -0.26023,1.54429 0.43484,3.19143 0,4.69679 -1.82413,6.31484 -3.89581,5.05494 -4.74856,10.95919 -1.42112,9.83935 -1.73321,15.04376 -6.33142,25.04955 -1.24041,2.69915 -4.6621,10.04811 -6.33141,12.52478 -0.29267,0.43422 -1.3469,-0.46678 -1.58286,0 -0.70787,1.40031 0.70787,3.29648 0,4.69679 -1.14266,2.26039 -2.02305,4.00199 -3.1657,6.26238 -0.8442,1.66998 0.84418,4.59242 0,6.2624 -1.94957,3.85662 -5.60076,7.14535 -7.91427,10.95917 -5.26433,8.67823 -2.38069,25.84717 -4.74856,31.31195 -1.03919,2.39835 -5.49718,2.22136 -6.33141,4.69679 -1.66705,4.94661 -3.00037,10.46856 -4.74857,15.65598 -0.5354,1.58867 -3.15018,15.50245 -3.1657,15.65596 -0.3675,3.63494 0.89576,7.4152 0,10.95919 -1.88167,7.44463 -1.84242,-1.98851 -3.16571,7.82798 -0.83968,6.22897 -0.39407,12.61406 -1.58285,18.78717 -0.93658,4.86341 -3.45886,9.30668 -4.74856,14.09038 -2.45779,9.11618 -2.91399,19.10787 -4.74856,28.18074 -0.54378,2.68927 -2.43842,4.10432 -3.16571,6.26239 -2.52554,7.49404 0.75782,20.68524 0,28.18076 -3.65532,36.15473 -2.84268,2.39629 -4.74856,34.44313 -0.30983,5.20965 1.95953,10.81057 0,15.65598 -0.55423,1.37048 -2.33792,1.90303 -3.16571,3.13119 -1.88783,2.80088 0,14.42382 0,17.22156 0,7.67875 -1.66864,17.62253 0,25.04956 0.51187,2.27828 2.41954,4.0483 3.16571,6.26239 0.85076,2.52445 0.73209,5.30354 1.58285,7.82799 -2.43134,5.35982 3.37271,5.10626 4.74856,7.82799 4.60226,9.10416 7.83784,19.89916 9.49712,29.74634 0.52044,3.0886 -0.4477,6.29386 0,9.39359 1.11654,7.73056 4.90842,13.31534 6.33142,20.35276 0.9585,4.74028 1.3488,17.34325 1.58285,20.35277 0.92023,11.83264 -1.69424,24.27835 0,36.00874 4.55616,31.54543 7.82873,31.693 9.49712,54.7959 1.11918,15.49775 -1.56402,31.49816 0,46.96792 0.71461,7.06826 2.73926,14.67427 1.58286,21.91836 -3.26043,20.42425 -10.12099,39.73405 -15.82854,59.49265 -3.60607,12.4837 -3.48117,25.6736 -9.49712,37.5743 -0.66739,1.3202 -2.49832,1.811 -3.16571,3.1313 -0.47191,0.9335 0.74617,2.3931 0,3.1311 -0.37308,0.3691 -1.20977,-0.369 -1.58285,0 -0.79302,0.7844 -0.54517,5.2361 -1.58285,6.2624 -2.68855,2.6593 -6.81618,3.6107 -9.49712,6.2624 -0.7317,0.7238 0.47784,3.7515 0,4.6969 -1.95594,3.8692 -1.58286,-0.5405 -1.58286,3.1311"
           id="path41357" />
      </g>
      <g
         id="g34005"
         transform="matrix(-1.148668,0.02104454,0.02226689,1.0065623,1033.4307,-9.31206)"
         style="opacity:1">
        <path
           style="fill:#00f66c;fill-opacity:0.995935;stroke:#000000;stroke-width:1px;stroke-linecap:butt;stroke-linejoin:miter;stroke-opacity:1"
           d="m 96.795858,1124.0809 170.173362,-1.5612 c 0,0 -7.5199,-190.76684 -30.53106,-375.14321 -7.98417,-63.973 68.25252,-441.78109 95.85132,-487.04312 27.59879,-45.26202 -25.39089,-185.463891 -25.39089,-185.463891 0,0 -32.01462,94.939851 -25.39091,133.578161 6.62371,38.63831 -81.42266,241.79025 -152.34533,536.52054 -23.675,98.38518 -32.366492,379.11272 -32.366492,379.11272 z"
           id="path34001"
           sodipodi:nodetypes="ccsscssc" />
        <path
           style="fill:none;stroke:#000000;stroke-width:1.00831px;stroke-linecap:butt;stroke-linejoin:miter;stroke-opacity:1"
           d="m 306.78376,74.87006 c -1.01178,15.722222 -0.91123,9.430306 -0.91123,18.856578 0,6.688142 1.58286,9.385652 1.58286,15.655972 0,18.24805 -1.58286,32.65056 -1.58286,51.66471 0,8.42169 -2.31637,27.56979 0,34.44313 0.23596,0.70016 1.34689,0.86545 1.58286,1.56561 1.14965,3.41136 -1.31545,9.65807 1.58285,12.52478 0.37308,0.36901 1.34689,-0.46678 1.58285,0 1.17979,2.33385 -0.72474,5.31905 0,7.82797 0.64823,2.24406 2.51748,4.01834 3.16571,6.2624 1.05235,3.64308 1.41285,38.07876 0,42.27112 -0.32199,0.95543 -2.84372,3.74136 -3.16571,4.69679 -1.04875,3.11196 -0.55014,6.32922 -1.58285,9.39358 -1.32724,3.93831 -5.09677,7.29563 -6.33141,10.9592 -2.78844,8.27407 -6.88584,18.3183 -11.07998,26.61515 -2.41627,4.77984 -14.72526,25.38129 -15.82854,29.74634 -0.38391,1.51886 0.31042,3.16161 0,4.6968 -0.46276,2.28853 -2.59343,3.99822 -3.16571,6.26239 -1.65328,6.54103 -5.19507,13.60906 -6.33141,20.35276 -0.26023,1.54429 0.43484,3.19143 0,4.69679 -1.82413,6.31484 -3.89581,5.05494 -4.74856,10.95919 -1.42112,9.83935 -1.73321,15.04376 -6.33142,25.04955 -1.24041,2.69915 -4.6621,10.04811 -6.33141,12.52478 -0.29267,0.43422 -1.3469,-0.46678 -1.58286,0 -0.70787,1.40031 0.70787,3.29648 0,4.69679 -1.14266,2.26039 -2.02305,4.00199 -3.1657,6.26238 -0.8442,1.66998 0.84418,4.59242 0,6.2624 -1.94957,3.85662 -5.60076,7.14535 -7.91427,10.95917 -5.26433,8.67823 -2.38069,25.84717 -4.74856,31.31195 -1.03919,2.39835 -5.49718,2.22136 -6.33141,4.69679 -1.66705,4.94661 -3.00037,10.46856 -4.74857,15.65598 -0.5354,1.58867 -3.15018,15.50245 -3.1657,15.65596 -0.3675,3.63494 0.89576,7.4152 0,10.95919 -1.88167,7.44463 -1.84242,-1.98851 -3.16571,7.82798 -0.83968,6.22897 -0.39407,12.61406 -1.58285,18.78717 -0.93658,4.86341 -3.45886,9.30668 -4.74856,14.09038 -2.45779,9.11618 -2.91399,19.10787 -4.74856,28.18074 -0.54378,2.68927 -2.43842,4.10432 -3.16571,6.26239 -2.52554,7.49404 0.75782,20.68524 0,28.18076 -3.65532,36.15473 -2.84268,2.39629 -4.74856,34.44313 -0.30983,5.20965 1.95953,10.81057 0,15.65598 -0.55423,1.37048 -2.33792,1.90303 -3.16571,3.13119 -1.88783,2.80088 0,14.42382 0,17.22156 0,7.67875 -1.66864,17.62253 0,25.04956 0.51187,2.27828 2.41954,4.0483 3.16571,6.26239 0.85076,2.52445 0.73209,5.30354 1.58285,7.82799 -2.43134,5.35982 3.37271,5.10626 4.74856,7.82799 4.60226,9.10416 7.83784,19.89916 9.49712,29.74634 0.52044,3.0886 -0.4477,6.29386 0,9.39359 1.11654,7.73056 4.90842,13.31534 6.33142,20.35276 0.9585,4.74028 1.3488,17.34325 1.58285,20.35277 0.92023,11.83264 -1.69424,24.27835 0,36.00874 4.55616,31.54543 7.82873,31.693 9.49712,54.7959 1.11918,15.49775 -1.56402,31.49816 0,46.96792 0.71461,7.06826 2.73926,14.67427 1.58286,21.91836 -3.26043,20.42425 -10.12099,39.73405 -15.82854,59.49265 -3.60607,12.4837 -3.48117,25.6736 -9.49712,37.5743 -0.66739,1.3202 -2.49832,1.811 -3.16571,3.1313 -0.47191,0.9335 0.74617,2.3931 0,3.1311 -0.37308,0.3691 -1.20977,-0.369 -1.58285,0 -0.79302,0.7844 -0.54517,5.2361 -1.58285,6.2624 -2.68855,2.6593 -6.81618,3.6107 -9.49712,6.2624 -0.7317,0.7238 0.47784,3.7515 0,4.6969 -1.95594,3.8692 -1.58286,-0.5405 -1.58286,3.1311"
           id="path34003" />
      </g>
      <g
         id="g41998"
         transform="matrix(1.0702459,-0.26091229,0.20559039,1.0262019,1067.0513,-15.741343)"
         style="opacity:0.65233">
        <path
           style="fill:#00f66c;fill-opacity:0.995935;stroke:#000000;stroke-width:0.988235px;stroke-linecap:butt;stroke-linejoin:miter;stroke-opacity:1"
           d="M 96.790415,1124.0913 244.08934,1094.253 c 0,0 81.14808,-146.11822 57.36718,-326.50458 -8.25124,-62.58858 -1.13196,-300.10586 26.79309,-377.56956 17.97252,-49.85551 -26.09089,-290.650395 -26.09089,-290.650395 0,0 -45.94937,171.704305 -39.16622,209.516725 6.78315,37.81241 -71.80003,155.0757 -135.50106,444.59158 -21.79646,99.06307 -30.701025,370.45453 -30.701025,370.45453 z"
           id="path41994"
           sodipodi:nodetypes="ccsscssc" />
        <path
           style="fill:none;stroke:#000000;stroke-width:0.984007px;stroke-linecap:butt;stroke-linejoin:miter;stroke-opacity:1"
           d="m 300.71668,106.44373 c -0.87222,14.9961 -0.82686,8.99125 -0.7445,17.9892 0.0584,6.38423 1.66139,8.97747 1.71618,14.96287 0.15942,17.41886 -1.29416,31.14861 -1.12805,49.29877 0.0736,8.039 -2.07046,26.29023 0.3009,32.87803 0.24157,0.67107 1.35152,0.8417 1.59309,1.51277 1.17695,3.26965 -1.2282,9.204 1.68882,11.97397 0.37548,0.35655 1.33987,-0.43 1.5794,0.0183 1.1976,2.24145 -0.6767,5.06898 0.0683,7.47227 0.66642,2.14959 2.54709,3.86485 3.21351,6.01445 1.08189,3.4897 1.74244,36.3648 0.3693,40.35032 -0.31294,0.90829 -2.80483,3.53847 -3.11777,4.44676 -1.01928,2.95842 -0.49365,6.03526 -1.49733,8.94844 -1.28993,3.744 -5.02191,6.90518 -6.22185,10.388 -2.71007,7.86585 -6.71078,17.40629 -10.82328,25.27764 -2.36924,4.53471 -14.47139,24.0577 -15.53413,28.21164 -0.3698,1.44541 0.33736,3.02154 0.041,4.48338 -0.44176,2.17919 -2.55285,3.78656 -3.1041,5.94122 -1.59253,6.22469 -5.06484,12.9306 -6.13978,19.35473 -0.24617,1.47111 0.46177,3.05143 0.041,4.48337 -1.76498,6.00679 -3.84315,4.78019 -4.64245,10.4063 -1.33206,9.37581 -1.598,14.34013 -6.09877,23.83808 -1.21412,2.56216 -4.56414,9.53762 -6.20817,11.88245 -0.28824,0.41111 -1.34803,-0.46114 -1.57941,-0.0183 -0.69409,1.3285 0.73513,3.15487 0.041,4.48336 -1.12043,2.14447 -1.98368,3.79675 -3.10408,5.94122 -0.82777,1.58433 0.88245,4.3935 0.0547,5.97783 -1.91161,3.65883 -5.52611,6.7559 -7.80125,10.36968 -5.17703,8.22302 -2.14969,24.64514 -4.46465,29.83423 -1.01597,2.27735 -5.46577,2.05686 -6.27656,4.41015 -1.62019,4.70257 -2.90236,9.95818 -4.60143,14.88967 -0.52036,1.5103 -3.00787,14.7616 -3.02202,14.90795 -0.33494,3.46552 0.95859,7.08862 0.0958,10.4612 -1.81251,7.0846 -1.85576,-1.91945 -3.09041,7.43568 -0.78343,5.93622 -0.28301,12.03632 -1.41526,17.91518 -0.89205,4.63159 -3.37001,8.84379 -4.6151,13.39521 -2.37279,8.67351 -2.7407,18.20591 -4.492,26.8453 -0.5191,2.56078 -2.39725,3.88962 -3.10409,5.94122 -2.45456,7.12431 0.93688,19.75407 0.24619,26.90023 -3.33148,34.4696 -2.81554,2.25453 -4.43728,32.82313 -0.26365,4.96934 2.04969,10.34199 0.13678,14.94457 -0.54105,1.3018 -2.31619,1.78953 -3.13145,2.95231 -1.85924,2.65177 0.12605,13.7684 0.15045,16.43901 0.0671,7.32983 -1.51104,16.80247 0.21884,23.91131 0.53065,2.18068 2.44962,3.89233 3.21351,6.01444 0.87096,2.41957 0.77683,5.071 1.64778,7.49058 -2.37921,5.08816 3.40996,4.91323 4.80659,7.52719 4.67175,8.74369 7.99458,19.08558 9.73627,28.50449 0.54629,2.95428 -0.39174,6.0027 0.0821,8.96675 1.18165,7.3922 5.01404,12.76704 6.49542,19.50115 0.99782,4.53596 1.49737,16.57076 1.7572,19.44624 1.0216,11.3056 -1.47844,23.15555 0.31458,34.3725 4.82181,30.1647 8.08853,30.3434 9.95511,52.4158 1.25214,14.80647 -1.28542,30.0488 0.41033,44.8337 0.7748,6.75534 2.86149,14.03915 1.77089,20.94066 -3.07487,19.45847 -9.75176,37.81157 -15.27424,56.60627 -3.48914,11.8748 -3.24929,24.4668 -9.14813,35.7571 -0.65441,1.2526 -2.47705,1.6999 -3.13146,2.9525 -0.46272,0.8855 0.76545,2.293 0.0273,2.9888 -0.36904,0.348 -1.21035,-0.3662 -1.57939,-0.018 -0.78444,0.7396 -0.49824,4.9919 -1.52469,5.9596 -2.65945,2.5072 -6.76976,3.3677 -9.42168,5.8679 -0.72378,0.6825 0.50956,3.5866 0.041,4.4835 -1.91787,3.6708 -1.58413,-0.5342 -1.55205,2.9705"
           id="path41996" />
      </g>
      <g
         id="g41451"
         transform="matrix(-1.148668,0.02104454,0.02226689,1.0065623,1675.4821,-9.4135478)"
         style="opacity:1">
        <path
           style="fill:#00f66c;fill-opacity:0.995935;stroke:#000000;stroke-width:1px;stroke-linecap:butt;stroke-linejoin:miter;stroke-opacity:1"
           d="m 96.795858,1124.0809 229.922112,-4.3614 c 0,0 -0.45636,-176.95515 -23.46752,-361.33152 -7.98417,-63.973 0.18955,-306.96819 28.48576,-386.3678 18.21139,-51.10147 -24.83762,-297.150701 -24.83762,-297.150701 0,0 -46.75508,175.902381 -40.13137,214.540691 6.62371,38.63831 -72.55997,159.04398 -137.60487,455.55801 -22.25628,101.45761 -32.366492,379.11272 -32.366492,379.11272 z"
           id="path41447"
           sodipodi:nodetypes="ccsscssc" />
        <path
           style="fill:none;stroke:#000000;stroke-width:1.00831px;stroke-linecap:butt;stroke-linejoin:miter;stroke-opacity:1"
           d="m 306.78376,74.87006 c -1.01178,15.722222 -0.91123,9.430306 -0.91123,18.856578 0,6.688142 1.58286,9.385652 1.58286,15.655972 0,18.24805 -1.58286,32.65056 -1.58286,51.66471 0,8.42169 -2.31637,27.56979 0,34.44313 0.23596,0.70016 1.34689,0.86545 1.58286,1.56561 1.14965,3.41136 -1.31545,9.65807 1.58285,12.52478 0.37308,0.36901 1.34689,-0.46678 1.58285,0 1.17979,2.33385 -0.72474,5.31905 0,7.82797 0.64823,2.24406 2.51748,4.01834 3.16571,6.2624 1.05235,3.64308 1.41285,38.07876 0,42.27112 -0.32199,0.95543 -2.84372,3.74136 -3.16571,4.69679 -1.04875,3.11196 -0.55014,6.32922 -1.58285,9.39358 -1.32724,3.93831 -5.09677,7.29563 -6.33141,10.9592 -2.78844,8.27407 -6.88584,18.3183 -11.07998,26.61515 -2.41627,4.77984 -14.72526,25.38129 -15.82854,29.74634 -0.38391,1.51886 0.31042,3.16161 0,4.6968 -0.46276,2.28853 -2.59343,3.99822 -3.16571,6.26239 -1.65328,6.54103 -5.19507,13.60906 -6.33141,20.35276 -0.26023,1.54429 0.43484,3.19143 0,4.69679 -1.82413,6.31484 -3.89581,5.05494 -4.74856,10.95919 -1.42112,9.83935 -1.73321,15.04376 -6.33142,25.04955 -1.24041,2.69915 -4.6621,10.04811 -6.33141,12.52478 -0.29267,0.43422 -1.3469,-0.46678 -1.58286,0 -0.70787,1.40031 0.70787,3.29648 0,4.69679 -1.14266,2.26039 -2.02305,4.00199 -3.1657,6.26238 -0.8442,1.66998 0.84418,4.59242 0,6.2624 -1.94957,3.85662 -5.60076,7.14535 -7.91427,10.95917 -5.26433,8.67823 -2.38069,25.84717 -4.74856,31.31195 -1.03919,2.39835 -5.49718,2.22136 -6.33141,4.69679 -1.66705,4.94661 -3.00037,10.46856 -4.74857,15.65598 -0.5354,1.58867 -3.15018,15.50245 -3.1657,15.65596 -0.3675,3.63494 0.89576,7.4152 0,10.95919 -1.88167,7.44463 -1.84242,-1.98851 -3.16571,7.82798 -0.83968,6.22897 -0.39407,12.61406 -1.58285,18.78717 -0.93658,4.86341 -3.45886,9.30668 -4.74856,14.09038 -2.45779,9.11618 -2.91399,19.10787 -4.74856,28.18074 -0.54378,2.68927 -2.43842,4.10432 -3.16571,6.26239 -2.52554,7.49404 0.75782,20.68524 0,28.18076 -3.65532,36.15473 -2.84268,2.39629 -4.74856,34.44313 -0.30983,5.20965 1.95953,10.81057 0,15.65598 -0.55423,1.37048 -2.33792,1.90303 -3.16571,3.13119 -1.88783,2.80088 0,14.42382 0,17.22156 0,7.67875 -1.66864,17.62253 0,25.04956 0.51187,2.27828 2.41954,4.0483 3.16571,6.26239 0.85076,2.52445 0.73209,5.30354 1.58285,7.82799 -2.43134,5.35982 3.37271,5.10626 4.74856,7.82799 4.60226,9.10416 7.83784,19.89916 9.49712,29.74634 0.52044,3.0886 -0.4477,6.29386 0,9.39359 1.11654,7.73056 4.90842,13.31534 6.33142,20.35276 0.9585,4.74028 1.3488,17.34325 1.58285,20.35277 0.92023,11.83264 -1.69424,24.27835 0,36.00874 4.55616,31.54543 7.82873,31.693 9.49712,54.7959 1.11918,15.49775 -1.56402,31.49816 0,46.96792 0.71461,7.06826 2.73926,14.67427 1.58286,21.91836 -3.26043,20.42425 -10.12099,39.73405 -15.82854,59.49265 -3.60607,12.4837 -3.48117,25.6736 -9.49712,37.5743 -0.66739,1.3202 -2.49832,1.811 -3.16571,3.1313 -0.47191,0.9335 0.74617,2.3931 0,3.1311 -0.37308,0.3691 -1.20977,-0.369 -1.58285,0 -0.79302,0.7844 -0.54517,5.2361 -1.58285,6.2624 -2.68855,2.6593 -6.81618,3.6107 -9.49712,6.2624 -0.7317,0.7238 0.47784,3.7515 0,4.6969 -1.95594,3.8692 -1.58286,-0.5405 -1.58286,3.1311"
           id="path41449" />
      </g>
    </g>
    <g
       id="g46428"
       inkscape:label="riba"
       style="opacity:0.897849">
      <ellipse
         style="fill:url(#linearGradient47772);fill-opacity:1;fill-rule:evenodd;stroke:#f3d700;stroke-width:1.00157;stroke-linecap:round;stroke-linejoin:round"
         id="path46367"
         cx="1152.183"
         cy="551.11188"
         rx="106.1632"
         ry="54.642822" />
      <path
         style="fill:url(#linearGradient48100);fill-opacity:1;stroke:#d26700;stroke-width:1px;stroke-linecap:butt;stroke-linejoin:miter;stroke-opacity:1"
         d="m 1257.953,551.77663 45.814,-52.43771 -1.104,87.76416 z"
         id="path46424" />
      <ellipse
         style="fill:#000000;fill-opacity:1;fill-rule:evenodd;stroke:#000000;stroke-width:1.00157;stroke-linecap:round;stroke-linejoin:round;stroke-opacity:1"
         id="path48252"
         cx="1090.9802"
         cy="533.8374"
         rx="10.211554"
         ry="9.6595774" />
    </g>
    <g
       id="g60629"
       inkscape:label="riba"
       transform="matrix(0.65011165,0,0,0.67982428,331.8706,553.89679)"
       style="opacity:0.607527">
      <ellipse
         style="fill:url(#linearGradient60631);fill-opacity:1;fill-rule:evenodd;stroke:#f3d700;stroke-width:1.00157;stroke-linecap:round;stroke-linejoin:round"
         id="ellipse60623"
         cx="1152.183"
         cy="551.11188"
         rx="106.1632"
         ry="54.642822" />
      <path
         style="fill:url(#linearGradient60633);fill-opacity:1;stroke:#d26700;stroke-width:1px;stroke-linecap:butt;stroke-linejoin:miter;stroke-opacity:1"
         d="m 1257.953,551.77663 45.814,-52.43771 -1.104,87.76416 z"
         id="path60625" />
      <ellipse
         style="fill:#000000;fill-opacity:1;fill-rule:evenodd;stroke:#000000;stroke-width:1.00157;stroke-linecap:round;stroke-linejoin:round;stroke-opacity:1"
         id="ellipse60627"
         cx="1090.9802"
         cy="533.8374"
         rx="10.211554"
         ry="9.6595774" />
    </g>
    <g
       id="g60929"
       inkscape:label="riba"
       transform="translate(-478.39572,163.93098)"
       style="fill:url(#meshgradient959);fill-opacity:1">
      <ellipse
         style="fill:url(#linearGradient60931);fill-opacity:1;fill-rule:evenodd;stroke:#f3d700;stroke-width:1.00157;stroke-linecap:round;stroke-linejoin:round"
         id="ellipse60923"
         cx="1152.183"
         cy="551.11188"
         rx="106.1632"
         ry="54.642822" />
      <path
         style="fill:url(#linearGradient60933);fill-opacity:1;stroke:#d26700;stroke-width:1px;stroke-linecap:butt;stroke-linejoin:miter;stroke-opacity:1"
         d="m 1257.953,551.77663 45.814,-52.43771 -1.104,87.76416 z"
         id="path60925" />
      <ellipse
         style="fill:#000000;fill-opacity:1;fill-rule:evenodd;stroke:#000000;stroke-width:1.00157;stroke-linecap:round;stroke-linejoin:round;stroke-opacity:1"
         id="ellipse60927"
         cx="1090.9802"
         cy="533.8374"
         rx="10.211554"
         ry="9.6595774" />
    </g>
  </g>
  <script
     id="mesh_polyfill"
     type="text/javascript">
!function(){const t=&quot;http://www.w3.org/2000/svg&quot;,e=&quot;http://www.w3.org/1999/xlink&quot;,s=&quot;http://www.w3.org/1999/xhtml&quot;,r=2;if(document.createElementNS(t,&quot;meshgradient&quot;).x)return;const n=(t,e,s,r)=&gt;{let n=new x(.5*(e.x+s.x),.5*(e.y+s.y)),o=new x(.5*(t.x+e.x),.5*(t.y+e.y)),i=new x(.5*(s.x+r.x),.5*(s.y+r.y)),a=new x(.5*(n.x+o.x),.5*(n.y+o.y)),h=new x(.5*(n.x+i.x),.5*(n.y+i.y)),l=new x(.5*(a.x+h.x),.5*(a.y+h.y));return[[t,o,a,l],[l,h,i,r]]},o=t=&gt;{let e=t[0].distSquared(t[1]),s=t[2].distSquared(t[3]),r=.25*t[0].distSquared(t[2]),n=.25*t[1].distSquared(t[3]),o=e&gt;s?e:s,i=r&gt;n?r:n;return 18*(o&gt;i?o:i)},i=(t,e)=&gt;Math.sqrt(t.distSquared(e)),a=(t,e)=&gt;t.scale(2/3).add(e.scale(1/3)),h=t=&gt;{let e,s,r,n,o,i,a,h=new g;return t.match(/(\w+\(\s*[^)]+\))+/g).forEach(t=&gt;{let l=t.match(/[\w.-]+/g),d=l.shift();switch(d){case&quot;translate&quot;:2===l.length?e=new g(1,0,0,1,l[0],l[1]):(console.error(&quot;mesh.js: translate does not have 2 arguments!&quot;),e=new g(1,0,0,1,0,0)),h=h.append(e);break;case&quot;scale&quot;:1===l.length?s=new g(l[0],0,0,l[0],0,0):2===l.length?s=new g(l[0],0,0,l[1],0,0):(console.error(&quot;mesh.js: scale does not have 1 or 2 arguments!&quot;),s=new g(1,0,0,1,0,0)),h=h.append(s);break;case&quot;rotate&quot;:if(3===l.length&amp;&amp;(e=new g(1,0,0,1,l[1],l[2]),h=h.append(e)),l[0]){r=l[0]*Math.PI/180;let t=Math.cos(r),e=Math.sin(r);Math.abs(t)&lt;1e-16&amp;&amp;(t=0),Math.abs(e)&lt;1e-16&amp;&amp;(e=0),a=new g(t,e,-e,t,0,0),h=h.append(a)}else console.error(&quot;math.js: No argument to rotate transform!&quot;);3===l.length&amp;&amp;(e=new g(1,0,0,1,-l[1],-l[2]),h=h.append(e));break;case&quot;skewX&quot;:l[0]?(r=l[0]*Math.PI/180,n=Math.tan(r),o=new g(1,0,n,1,0,0),h=h.append(o)):console.error(&quot;math.js: No argument to skewX transform!&quot;);break;case&quot;skewY&quot;:l[0]?(r=l[0]*Math.PI/180,n=Math.tan(r),i=new g(1,n,0,1,0,0),h=h.append(i)):console.error(&quot;math.js: No argument to skewY transform!&quot;);break;case&quot;matrix&quot;:6===l.length?h=h.append(new g(...l)):console.error(&quot;math.js: Incorrect number of arguments for matrix!&quot;);break;default:console.error(&quot;mesh.js: Unhandled transform type: &quot;+d)}}),h},l=t=&gt;{let e=[],s=t.split(/[ ,]+/);for(let t=0,r=s.length-1;t&lt;r;t+=2)e.push(new x(parseFloat(s[t]),parseFloat(s[t+1])));return e},d=(t,e)=&gt;{for(let s in e)t.setAttribute(s,e[s])},c=(t,e,s,r,n)=&gt;{let o,i,a=[0,0,0,0];for(let h=0;h&lt;3;++h)e[h]&lt;t[h]&amp;&amp;e[h]&lt;s[h]||t[h]&lt;e[h]&amp;&amp;s[h]&lt;e[h]?a[h]=0:(a[h]=.5*((e[h]-t[h])/r+(s[h]-e[h])/n),o=Math.abs(3*(e[h]-t[h])/r),i=Math.abs(3*(s[h]-e[h])/n),a[h]&gt;o?a[h]=o:a[h]&gt;i&amp;&amp;(a[h]=i));return a},u=[[1,0,0,0,0,0,0,0,0,0,0,0,0,0,0,0],[0,0,0,0,1,0,0,0,0,0,0,0,0,0,0,0],[-3,3,0,0,-2,-1,0,0,0,0,0,0,0,0,0,0],[2,-2,0,0,1,1,0,0,0,0,0,0,0,0,0,0],[0,0,0,0,0,0,0,0,1,0,0,0,0,0,0,0],[0,0,0,0,0,0,0,0,0,0,0,0,1,0,0,0],[0,0,0,0,0,0,0,0,-3,3,0,0,-2,-1,0,0],[0,0,0,0,0,0,0,0,2,-2,0,0,1,1,0,0],[-3,0,3,0,0,0,0,0,-2,0,-1,0,0,0,0,0],[0,0,0,0,-3,0,3,0,0,0,0,0,-2,0,-1,0],[9,-9,-9,9,6,3,-6,-3,6,-6,3,-3,4,2,2,1],[-6,6,6,-6,-3,-3,3,3,-4,4,-2,2,-2,-2,-1,-1],[2,0,-2,0,0,0,0,0,1,0,1,0,0,0,0,0],[0,0,0,0,2,0,-2,0,0,0,0,0,1,0,1,0],[-6,6,6,-6,-4,-2,4,2,-3,3,-3,3,-2,-1,-2,-1],[4,-4,-4,4,2,2,-2,-2,2,-2,2,-2,1,1,1,1]],f=t=&gt;{let e=[];for(let s=0;s&lt;16;++s){e[s]=0;for(let r=0;r&lt;16;++r)e[s]+=u[s][r]*t[r]}return e},p=(t,e,s)=&gt;{const r=e*e,n=s*s,o=e*e*e,i=s*s*s;return t[0]+t[1]*e+t[2]*r+t[3]*o+t[4]*s+t[5]*s*e+t[6]*s*r+t[7]*s*o+t[8]*n+t[9]*n*e+t[10]*n*r+t[11]*n*o+t[12]*i+t[13]*i*e+t[14]*i*r+t[15]*i*o},y=t=&gt;{let e=[],s=[],r=[];for(let s=0;s&lt;4;++s)e[s]=[],e[s][0]=n(t[0][s],t[1][s],t[2][s],t[3][s]),e[s][1]=[],e[s][1].push(...n(...e[s][0][0])),e[s][1].push(...n(...e[s][0][1])),e[s][2]=[],e[s][2].push(...n(...e[s][1][0])),e[s][2].push(...n(...e[s][1][1])),e[s][2].push(...n(...e[s][1][2])),e[s][2].push(...n(...e[s][1][3]));for(let t=0;t&lt;8;++t){s[t]=[];for(let r=0;r&lt;4;++r)s[t][r]=[],s[t][r][0]=n(e[0][2][t][r],e[1][2][t][r],e[2][2][t][r],e[3][2][t][r]),s[t][r][1]=[],s[t][r][1].push(...n(...s[t][r][0][0])),s[t][r][1].push(...n(...s[t][r][0][1])),s[t][r][2]=[],s[t][r][2].push(...n(...s[t][r][1][0])),s[t][r][2].push(...n(...s[t][r][1][1])),s[t][r][2].push(...n(...s[t][r][1][2])),s[t][r][2].push(...n(...s[t][r][1][3]))}for(let t=0;t&lt;8;++t){r[t]=[];for(let e=0;e&lt;8;++e)r[t][e]=[],r[t][e][0]=s[t][0][2][e],r[t][e][1]=s[t][1][2][e],r[t][e][2]=s[t][2][2][e],r[t][e][3]=s[t][3][2][e]}return r};class x{constructor(t,e){this.x=t||0,this.y=e||0}toString(){return`(x=${this.x}, y=${this.y})`}clone(){return new x(this.x,this.y)}add(t){return new x(this.x+t.x,this.y+t.y)}scale(t){return void 0===t.x?new x(this.x*t,this.y*t):new x(this.x*t.x,this.y*t.y)}distSquared(t){let e=this.x-t.x,s=this.y-t.y;return e*e+s*s}transform(t){let e=this.x*t.a+this.y*t.c+t.e,s=this.x*t.b+this.y*t.d+t.f;return new x(e,s)}}class g{constructor(t,e,s,r,n,o){void 0===t?(this.a=1,this.b=0,this.c=0,this.d=1,this.e=0,this.f=0):(this.a=t,this.b=e,this.c=s,this.d=r,this.e=n,this.f=o)}toString(){return`affine: ${this.a} ${this.c} ${this.e} \n       ${this.b} ${this.d} ${this.f}`}append(t){t instanceof g||console.error(&quot;mesh.js: argument to Affine.append is not affine!&quot;);let e=this.a*t.a+this.c*t.b,s=this.b*t.a+this.d*t.b,r=this.a*t.c+this.c*t.d,n=this.b*t.c+this.d*t.d,o=this.a*t.e+this.c*t.f+this.e,i=this.b*t.e+this.d*t.f+this.f;return new g(e,s,r,n,o,i)}}class w{constructor(t,e){this.nodes=t,this.colors=e}paintCurve(t,e){if(o(this.nodes)&gt;r){const s=n(...this.nodes);let r=[[],[]],o=[[],[]];for(let t=0;t&lt;4;++t)r[0][t]=this.colors[0][t],r[1][t]=(this.colors[0][t]+this.colors[1][t])/2,o[0][t]=r[1][t],o[1][t]=this.colors[1][t];let i=new w(s[0],r),a=new w(s[1],o);i.paintCurve(t,e),a.paintCurve(t,e)}else{let s=Math.round(this.nodes[0].x);if(s&gt;=0&amp;&amp;s&lt;e){let r=4*(~~this.nodes[0].y*e+s);t[r]=Math.round(this.colors[0][0]),t[r+1]=Math.round(this.colors[0][1]),t[r+2]=Math.round(this.colors[0][2]),t[r+3]=Math.round(this.colors[0][3])}}}}class m{constructor(t,e){this.nodes=t,this.colors=e}split(){let t=[[],[],[],[]],e=[[],[],[],[]],s=[[[],[]],[[],[]]],r=[[[],[]],[[],[]]];for(let s=0;s&lt;4;++s){const r=n(this.nodes[0][s],this.nodes[1][s],this.nodes[2][s],this.nodes[3][s]);t[0][s]=r[0][0],t[1][s]=r[0][1],t[2][s]=r[0][2],t[3][s]=r[0][3],e[0][s]=r[1][0],e[1][s]=r[1][1],e[2][s]=r[1][2],e[3][s]=r[1][3]}for(let t=0;t&lt;4;++t)s[0][0][t]=this.colors[0][0][t],s[0][1][t]=this.colors[0][1][t],s[1][0][t]=(this.colors[0][0][t]+this.colors[1][0][t])/2,s[1][1][t]=(this.colors[0][1][t]+this.colors[1][1][t])/2,r[0][0][t]=s[1][0][t],r[0][1][t]=s[1][1][t],r[1][0][t]=this.colors[1][0][t],r[1][1][t]=this.colors[1][1][t];return[new m(t,s),new m(e,r)]}paint(t,e){let s,n=!1;for(let t=0;t&lt;4;++t)if((s=o([this.nodes[0][t],this.nodes[1][t],this.nodes[2][t],this.nodes[3][t]]))&gt;r){n=!0;break}if(n){let s=this.split();s[0].paint(t,e),s[1].paint(t,e)}else{new w([...this.nodes[0]],[...this.colors[0]]).paintCurve(t,e)}}}class b{constructor(t){this.readMesh(t),this.type=t.getAttribute(&quot;type&quot;)||&quot;bilinear&quot;}readMesh(t){let e=[[]],s=[[]],r=Number(t.getAttribute(&quot;x&quot;)),n=Number(t.getAttribute(&quot;y&quot;));e[0][0]=new x(r,n);let o=t.children;for(let t=0,r=o.length;t&lt;r;++t){e[3*t+1]=[],e[3*t+2]=[],e[3*t+3]=[],s[t+1]=[];let r=o[t].children;for(let n=0,o=r.length;n&lt;o;++n){let o=r[n].children;for(let r=0,i=o.length;r&lt;i;++r){let i=r;0!==t&amp;&amp;++i;let h,d=o[r].getAttribute(&quot;path&quot;),c=&quot;l&quot;;null!=d&amp;&amp;(c=(h=d.match(/\s*([lLcC])\s*(.*)/))[1]);let u=l(h[2]);switch(c){case&quot;l&quot;:0===i?(e[3*t][3*n+3]=u[0].add(e[3*t][3*n]),e[3*t][3*n+1]=a(e[3*t][3*n],e[3*t][3*n+3]),e[3*t][3*n+2]=a(e[3*t][3*n+3],e[3*t][3*n])):1===i?(e[3*t+3][3*n+3]=u[0].add(e[3*t][3*n+3]),e[3*t+1][3*n+3]=a(e[3*t][3*n+3],e[3*t+3][3*n+3]),e[3*t+2][3*n+3]=a(e[3*t+3][3*n+3],e[3*t][3*n+3])):2===i?(0===n&amp;&amp;(e[3*t+3][3*n+0]=u[0].add(e[3*t+3][3*n+3])),e[3*t+3][3*n+1]=a(e[3*t+3][3*n],e[3*t+3][3*n+3]),e[3*t+3][3*n+2]=a(e[3*t+3][3*n+3],e[3*t+3][3*n])):(e[3*t+1][3*n]=a(e[3*t][3*n],e[3*t+3][3*n]),e[3*t+2][3*n]=a(e[3*t+3][3*n],e[3*t][3*n]));break;case&quot;L&quot;:0===i?(e[3*t][3*n+3]=u[0],e[3*t][3*n+1]=a(e[3*t][3*n],e[3*t][3*n+3]),e[3*t][3*n+2]=a(e[3*t][3*n+3],e[3*t][3*n])):1===i?(e[3*t+3][3*n+3]=u[0],e[3*t+1][3*n+3]=a(e[3*t][3*n+3],e[3*t+3][3*n+3]),e[3*t+2][3*n+3]=a(e[3*t+3][3*n+3],e[3*t][3*n+3])):2===i?(0===n&amp;&amp;(e[3*t+3][3*n+0]=u[0]),e[3*t+3][3*n+1]=a(e[3*t+3][3*n],e[3*t+3][3*n+3]),e[3*t+3][3*n+2]=a(e[3*t+3][3*n+3],e[3*t+3][3*n])):(e[3*t+1][3*n]=a(e[3*t][3*n],e[3*t+3][3*n]),e[3*t+2][3*n]=a(e[3*t+3][3*n],e[3*t][3*n]));break;case&quot;c&quot;:0===i?(e[3*t][3*n+1]=u[0].add(e[3*t][3*n]),e[3*t][3*n+2]=u[1].add(e[3*t][3*n]),e[3*t][3*n+3]=u[2].add(e[3*t][3*n])):1===i?(e[3*t+1][3*n+3]=u[0].add(e[3*t][3*n+3]),e[3*t+2][3*n+3]=u[1].add(e[3*t][3*n+3]),e[3*t+3][3*n+3]=u[2].add(e[3*t][3*n+3])):2===i?(e[3*t+3][3*n+2]=u[0].add(e[3*t+3][3*n+3]),e[3*t+3][3*n+1]=u[1].add(e[3*t+3][3*n+3]),0===n&amp;&amp;(e[3*t+3][3*n+0]=u[2].add(e[3*t+3][3*n+3]))):(e[3*t+2][3*n]=u[0].add(e[3*t+3][3*n]),e[3*t+1][3*n]=u[1].add(e[3*t+3][3*n]));break;case&quot;C&quot;:0===i?(e[3*t][3*n+1]=u[0],e[3*t][3*n+2]=u[1],e[3*t][3*n+3]=u[2]):1===i?(e[3*t+1][3*n+3]=u[0],e[3*t+2][3*n+3]=u[1],e[3*t+3][3*n+3]=u[2]):2===i?(e[3*t+3][3*n+2]=u[0],e[3*t+3][3*n+1]=u[1],0===n&amp;&amp;(e[3*t+3][3*n+0]=u[2])):(e[3*t+2][3*n]=u[0],e[3*t+1][3*n]=u[1]);break;default:console.error(&quot;mesh.js: &quot;+c+&quot; invalid path type.&quot;)}if(0===t&amp;&amp;0===n||r&gt;0){let e=window.getComputedStyle(o[r]).stopColor.match(/^rgb\s*\(\s*(\d+)\s*,\s*(\d+)\s*,\s*(\d+)\s*\)$/i),a=window.getComputedStyle(o[r]).stopOpacity,h=255;a&amp;&amp;(h=Math.floor(255*a)),e&amp;&amp;(0===i?(s[t][n]=[],s[t][n][0]=Math.floor(e[1]),s[t][n][1]=Math.floor(e[2]),s[t][n][2]=Math.floor(e[3]),s[t][n][3]=h):1===i?(s[t][n+1]=[],s[t][n+1][0]=Math.floor(e[1]),s[t][n+1][1]=Math.floor(e[2]),s[t][n+1][2]=Math.floor(e[3]),s[t][n+1][3]=h):2===i?(s[t+1][n+1]=[],s[t+1][n+1][0]=Math.floor(e[1]),s[t+1][n+1][1]=Math.floor(e[2]),s[t+1][n+1][2]=Math.floor(e[3]),s[t+1][n+1][3]=h):3===i&amp;&amp;(s[t+1][n]=[],s[t+1][n][0]=Math.floor(e[1]),s[t+1][n][1]=Math.floor(e[2]),s[t+1][n][2]=Math.floor(e[3]),s[t+1][n][3]=h))}}e[3*t+1][3*n+1]=new x,e[3*t+1][3*n+2]=new x,e[3*t+2][3*n+1]=new x,e[3*t+2][3*n+2]=new x,e[3*t+1][3*n+1].x=(-4*e[3*t][3*n].x+6*(e[3*t][3*n+1].x+e[3*t+1][3*n].x)+-2*(e[3*t][3*n+3].x+e[3*t+3][3*n].x)+3*(e[3*t+3][3*n+1].x+e[3*t+1][3*n+3].x)+-1*e[3*t+3][3*n+3].x)/9,e[3*t+1][3*n+2].x=(-4*e[3*t][3*n+3].x+6*(e[3*t][3*n+2].x+e[3*t+1][3*n+3].x)+-2*(e[3*t][3*n].x+e[3*t+3][3*n+3].x)+3*(e[3*t+3][3*n+2].x+e[3*t+1][3*n].x)+-1*e[3*t+3][3*n].x)/9,e[3*t+2][3*n+1].x=(-4*e[3*t+3][3*n].x+6*(e[3*t+3][3*n+1].x+e[3*t+2][3*n].x)+-2*(e[3*t+3][3*n+3].x+e[3*t][3*n].x)+3*(e[3*t][3*n+1].x+e[3*t+2][3*n+3].x)+-1*e[3*t][3*n+3].x)/9,e[3*t+2][3*n+2].x=(-4*e[3*t+3][3*n+3].x+6*(e[3*t+3][3*n+2].x+e[3*t+2][3*n+3].x)+-2*(e[3*t+3][3*n].x+e[3*t][3*n+3].x)+3*(e[3*t][3*n+2].x+e[3*t+2][3*n].x)+-1*e[3*t][3*n].x)/9,e[3*t+1][3*n+1].y=(-4*e[3*t][3*n].y+6*(e[3*t][3*n+1].y+e[3*t+1][3*n].y)+-2*(e[3*t][3*n+3].y+e[3*t+3][3*n].y)+3*(e[3*t+3][3*n+1].y+e[3*t+1][3*n+3].y)+-1*e[3*t+3][3*n+3].y)/9,e[3*t+1][3*n+2].y=(-4*e[3*t][3*n+3].y+6*(e[3*t][3*n+2].y+e[3*t+1][3*n+3].y)+-2*(e[3*t][3*n].y+e[3*t+3][3*n+3].y)+3*(e[3*t+3][3*n+2].y+e[3*t+1][3*n].y)+-1*e[3*t+3][3*n].y)/9,e[3*t+2][3*n+1].y=(-4*e[3*t+3][3*n].y+6*(e[3*t+3][3*n+1].y+e[3*t+2][3*n].y)+-2*(e[3*t+3][3*n+3].y+e[3*t][3*n].y)+3*(e[3*t][3*n+1].y+e[3*t+2][3*n+3].y)+-1*e[3*t][3*n+3].y)/9,e[3*t+2][3*n+2].y=(-4*e[3*t+3][3*n+3].y+6*(e[3*t+3][3*n+2].y+e[3*t+2][3*n+3].y)+-2*(e[3*t+3][3*n].y+e[3*t][3*n+3].y)+3*(e[3*t][3*n+2].y+e[3*t+2][3*n].y)+-1*e[3*t][3*n].y)/9}}this.nodes=e,this.colors=s}paintMesh(t,e){let s=(this.nodes.length-1)/3,r=(this.nodes[0].length-1)/3;if(&quot;bilinear&quot;===this.type||s&lt;2||r&lt;2){let n;for(let o=0;o&lt;s;++o)for(let s=0;s&lt;r;++s){let r=[];for(let t=3*o,e=3*o+4;t&lt;e;++t)r.push(this.nodes[t].slice(3*s,3*s+4));let i=[];i.push(this.colors[o].slice(s,s+2)),i.push(this.colors[o+1].slice(s,s+2)),(n=new m(r,i)).paint(t,e)}}else{let n,o,a,h,l,d,u;const x=s,g=r;s++,r++;let w=new Array(s);for(let t=0;t&lt;s;++t){w[t]=new Array(r);for(let e=0;e&lt;r;++e)w[t][e]=[],w[t][e][0]=this.nodes[3*t][3*e],w[t][e][1]=this.colors[t][e]}for(let t=0;t&lt;s;++t)for(let e=0;e&lt;r;++e)0!==t&amp;&amp;t!==x&amp;&amp;(n=i(w[t-1][e][0],w[t][e][0]),o=i(w[t+1][e][0],w[t][e][0]),w[t][e][2]=c(w[t-1][e][1],w[t][e][1],w[t+1][e][1],n,o)),0!==e&amp;&amp;e!==g&amp;&amp;(n=i(w[t][e-1][0],w[t][e][0]),o=i(w[t][e+1][0],w[t][e][0]),w[t][e][3]=c(w[t][e-1][1],w[t][e][1],w[t][e+1][1],n,o));for(let t=0;t&lt;r;++t){w[0][t][2]=[],w[x][t][2]=[];for(let e=0;e&lt;4;++e)n=i(w[1][t][0],w[0][t][0]),o=i(w[x][t][0],w[x-1][t][0]),w[0][t][2][e]=n&gt;0?2*(w[1][t][1][e]-w[0][t][1][e])/n-w[1][t][2][e]:0,w[x][t][2][e]=o&gt;0?2*(w[x][t][1][e]-w[x-1][t][1][e])/o-w[x-1][t][2][e]:0}for(let t=0;t&lt;s;++t){w[t][0][3]=[],w[t][g][3]=[];for(let e=0;e&lt;4;++e)n=i(w[t][1][0],w[t][0][0]),o=i(w[t][g][0],w[t][g-1][0]),w[t][0][3][e]=n&gt;0?2*(w[t][1][1][e]-w[t][0][1][e])/n-w[t][1][3][e]:0,w[t][g][3][e]=o&gt;0?2*(w[t][g][1][e]-w[t][g-1][1][e])/o-w[t][g-1][3][e]:0}for(let s=0;s&lt;x;++s)for(let r=0;r&lt;g;++r){let n=i(w[s][r][0],w[s+1][r][0]),o=i(w[s][r+1][0],w[s+1][r+1][0]),c=i(w[s][r][0],w[s][r+1][0]),x=i(w[s+1][r][0],w[s+1][r+1][0]),g=[[],[],[],[]];for(let t=0;t&lt;4;++t){(d=[])[0]=w[s][r][1][t],d[1]=w[s+1][r][1][t],d[2]=w[s][r+1][1][t],d[3]=w[s+1][r+1][1][t],d[4]=w[s][r][2][t]*n,d[5]=w[s+1][r][2][t]*n,d[6]=w[s][r+1][2][t]*o,d[7]=w[s+1][r+1][2][t]*o,d[8]=w[s][r][3][t]*c,d[9]=w[s+1][r][3][t]*x,d[10]=w[s][r+1][3][t]*c,d[11]=w[s+1][r+1][3][t]*x,d[12]=0,d[13]=0,d[14]=0,d[15]=0,u=f(d);for(let e=0;e&lt;9;++e){g[t][e]=[];for(let s=0;s&lt;9;++s)g[t][e][s]=p(u,e/8,s/8),g[t][e][s]&gt;255?g[t][e][s]=255:g[t][e][s]&lt;0&amp;&amp;(g[t][e][s]=0)}}h=[];for(let t=3*s,e=3*s+4;t&lt;e;++t)h.push(this.nodes[t].slice(3*r,3*r+4));l=y(h);for(let s=0;s&lt;8;++s)for(let r=0;r&lt;8;++r)(a=new m(l[s][r],[[[g[0][s][r],g[1][s][r],g[2][s][r],g[3][s][r]],[g[0][s][r+1],g[1][s][r+1],g[2][s][r+1],g[3][s][r+1]]],[[g[0][s+1][r],g[1][s+1][r],g[2][s+1][r],g[3][s+1][r]],[g[0][s+1][r+1],g[1][s+1][r+1],g[2][s+1][r+1],g[3][s+1][r+1]]]])).paint(t,e)}}}transform(t){if(t instanceof x)for(let e=0,s=this.nodes.length;e&lt;s;++e)for(let s=0,r=this.nodes[0].length;s&lt;r;++s)this.nodes[e][s]=this.nodes[e][s].add(t);else if(t instanceof g)for(let e=0,s=this.nodes.length;e&lt;s;++e)for(let s=0,r=this.nodes[0].length;s&lt;r;++s)this.nodes[e][s]=this.nodes[e][s].transform(t)}scale(t){for(let e=0,s=this.nodes.length;e&lt;s;++e)for(let s=0,r=this.nodes[0].length;s&lt;r;++s)this.nodes[e][s]=this.nodes[e][s].scale(t)}}document.querySelectorAll(&quot;rect,circle,ellipse,path,text&quot;).forEach((r,n)=&gt;{let o=r.getAttribute(&quot;id&quot;);o||(o=&quot;patchjs_shape&quot;+n,r.setAttribute(&quot;id&quot;,o));const i=r.style.fill.match(/^url\(\s*&quot;?\s*#([^\s&quot;]+)&quot;?\s*\)/),a=r.style.stroke.match(/^url\(\s*&quot;?\s*#([^\s&quot;]+)&quot;?\s*\)/);if(i&amp;&amp;i[1]){const a=document.getElementById(i[1]);if(a&amp;&amp;&quot;meshgradient&quot;===a.nodeName){const i=r.getBBox();let l=document.createElementNS(s,&quot;canvas&quot;);d(l,{width:i.width,height:i.height});const c=l.getContext(&quot;2d&quot;);let u=c.createImageData(i.width,i.height);const f=new b(a);&quot;objectBoundingBox&quot;===a.getAttribute(&quot;gradientUnits&quot;)&amp;&amp;f.scale(new x(i.width,i.height));const p=a.getAttribute(&quot;gradientTransform&quot;);null!=p&amp;&amp;f.transform(h(p)),&quot;userSpaceOnUse&quot;===a.getAttribute(&quot;gradientUnits&quot;)&amp;&amp;f.transform(new x(-i.x,-i.y)),f.paintMesh(u.data,l.width),c.putImageData(u,0,0);const y=document.createElementNS(t,&quot;image&quot;);d(y,{width:i.width,height:i.height,x:i.x,y:i.y});let g=l.toDataURL();y.setAttributeNS(e,&quot;xlink:href&quot;,g),r.parentNode.insertBefore(y,r),r.style.fill=&quot;none&quot;;const w=document.createElementNS(t,&quot;use&quot;);w.setAttributeNS(e,&quot;xlink:href&quot;,&quot;#&quot;+o);const m=&quot;patchjs_clip&quot;+n,M=document.createElementNS(t,&quot;clipPath&quot;);M.setAttribute(&quot;id&quot;,m),M.appendChild(w),r.parentElement.insertBefore(M,r),y.setAttribute(&quot;clip-path&quot;,&quot;url(#&quot;+m+&quot;)&quot;),u=null,l=null,g=null}}if(a&amp;&amp;a[1]){const o=document.getElementById(a[1]);if(o&amp;&amp;&quot;meshgradient&quot;===o.nodeName){const i=parseFloat(r.style.strokeWidth.slice(0,-2))*(parseFloat(r.style.strokeMiterlimit)||parseFloat(r.getAttribute(&quot;stroke-miterlimit&quot;))||1),a=r.getBBox(),l=Math.trunc(a.width+i),c=Math.trunc(a.height+i),u=Math.trunc(a.x-i/2),f=Math.trunc(a.y-i/2);let p=document.createElementNS(s,&quot;canvas&quot;);d(p,{width:l,height:c});const y=p.getContext(&quot;2d&quot;);let g=y.createImageData(l,c);const w=new b(o);&quot;objectBoundingBox&quot;===o.getAttribute(&quot;gradientUnits&quot;)&amp;&amp;w.scale(new x(l,c));const m=o.getAttribute(&quot;gradientTransform&quot;);null!=m&amp;&amp;w.transform(h(m)),&quot;userSpaceOnUse&quot;===o.getAttribute(&quot;gradientUnits&quot;)&amp;&amp;w.transform(new x(-u,-f)),w.paintMesh(g.data,p.width),y.putImageData(g,0,0);const M=document.createElementNS(t,&quot;image&quot;);d(M,{width:l,height:c,x:0,y:0});let S=p.toDataURL();M.setAttributeNS(e,&quot;xlink:href&quot;,S);const k=&quot;pattern_clip&quot;+n,A=document.createElementNS(t,&quot;pattern&quot;);d(A,{id:k,patternUnits:&quot;userSpaceOnUse&quot;,width:l,height:c,x:u,y:f}),A.appendChild(M),o.parentNode.appendChild(A),r.style.stroke=&quot;url(#&quot;+k+&quot;)&quot;,g=null,p=null,S=null}}})}();
</script>
</svg>
